<svg id="visual" viewBox="0 0 450 900" width="450" height="900" xmlns="http://www.w3.org/2000/svg" xmlns:xlink="http://www.w3.org/1999/xlink" version="1.1"><rect width="450" height="900" fill="#697dac"></rect><g><g transform="translate(137 772)"><path d="M29.5 -9.1C33.2 1.7 27.6 16 17.4 23.2C7.3 30.4 -7.5 30.5 -16.5 23.8C-25.5 17 -28.7 3.3 -25 -7.6C-21.3 -18.5 -10.6 -26.6 1.1 -26.9C12.9 -27.3 25.9 -20 29.5 -9.1Z" fill="#56678f"></path></g><g transform="translate(163 217)"><path d="M16.1 -4.6C18.5 2.1 16.4 10.9 11 14.8C5.5 18.8 -3.4 17.8 -9.4 13.3C-15.4 8.8 -18.6 0.9 -16.6 -5.3C-14.6 -11.6 -7.3 -16 -0.2 -16C6.9 -15.9 13.7 -11.3 16.1 -4.6Z" fill="#56678f"></path></g><g transform="translate(383 200)"><path d="M20.4 -7.4C22.9 1.1 18.9 10.9 11.5 16.4C4.1 21.9 -6.8 23.2 -13.6 18.4C-20.3 13.5 -22.9 2.6 -19.9 -6.4C-16.9 -15.5 -8.5 -22.8 0.2 -22.9C8.9 -22.9 17.9 -15.8 20.4 -7.4Z" fill="#56678f"></path></g></g></svg>