<svg id="visual" viewBox="0 0 450 900" width="450" height="900" xmlns="http://www.w3.org/2000/svg" xmlns:xlink="http://www.w3.org/1999/xlink" version="1.1"><rect width="450" height="900" fill="#697dac"></rect><g><g transform="translate(336 319)"><path d="M29.4 -8.2C33.5 3.3 29.3 18.8 18.7 26.8C8.1 34.7 -8.9 35.1 -18.4 27.6C-27.9 20.2 -29.9 4.9 -25.6 -6.8C-21.4 -18.4 -10.7 -26.4 1 -26.7C12.6 -27 25.2 -19.7 29.4 -8.2Z" fill="#56678f"></path></g><g transform="translate(128 102)"><path d="M29.8 -9.2C33.5 1.9 28 16.5 17.8 23.7C7.5 31 -7.5 31 -17.8 23.8C-28 16.5 -33.4 1.9 -29.6 -9.2C-25.9 -20.3 -12.9 -28 0 -28C13 -28 26 -20.4 29.8 -9.2Z" fill="#56678f"></path></g><g transform="translate(162 391)"><path d="M19.1 -6C22.1 3.2 20.2 14.1 13.4 19.3C6.6 24.4 -5.1 23.7 -12.1 18.3C-19 12.8 -21.4 2.5 -18.6 -6.3C-15.8 -15.1 -7.9 -22.4 0.1 -22.4C8 -22.5 16.1 -15.1 19.1 -6Z" fill="#56678f"></path></g></g></svg>