<svg id="visual" viewBox="0 0 450 900" width="450" height="900" xmlns="http://www.w3.org/2000/svg" xmlns:xlink="http://www.w3.org/1999/xlink" version="1.1"><rect width="450" height="900" fill="#697dac"></rect><g><g transform="translate(274 641)"><path d="M18.4 -6.1C21 2.3 18.5 12.2 11.5 17.7C4.5 23.3 -7.1 24.5 -14.7 19.3C-22.2 14 -25.7 2.3 -22.6 -6.7C-19.5 -15.6 -9.7 -21.8 -0.9 -21.5C7.9 -21.2 15.7 -14.4 18.4 -6.1Z" fill="#56678f"></path></g><g transform="translate(11 132)"><path d="M18.8 -6.1C21.5 2.3 18.9 12.4 12 17.7C5.1 23 -6.2 23.5 -12.7 18.5C-19.2 13.5 -21 3.1 -18.1 -5.5C-15.2 -14.1 -7.6 -20.9 0.2 -20.9C8 -21 16 -14.4 18.8 -6.1Z" fill="#56678f"></path></g><g transform="translate(80 365)"><path d="M15.1 -5.2C17.3 1.7 15.1 9.8 9.6 14C4.1 18.2 -4.8 18.5 -10.4 14.5C-15.9 10.4 -18.1 1.9 -15.9 -5.2C-13.6 -12.3 -6.8 -18 -0.1 -18C6.5 -17.9 13 -12.1 15.1 -5.2Z" fill="#56678f"></path></g><g transform="translate(267 458)"><path d="M17.8 -6.2C20.2 1.6 17.3 10.7 11.3 15C5.2 19.3 -3.9 18.7 -10.1 14.1C-16.3 9.6 -19.6 1.1 -17.4 -6.4C-15.2 -13.9 -7.6 -20.4 0 -20.4C7.7 -20.4 15.3 -13.9 17.8 -6.2Z" fill="#56678f"></path></g><g transform="translate(176 248)"><path d="M20.1 -7.3C22.3 0.3 17.9 9.4 10.6 14.6C3.4 19.8 -6.5 21.2 -12.4 16.9C-18.3 12.7 -20.2 2.7 -17.5 -5.6C-14.8 -14 -7.4 -20.8 0.8 -21C8.9 -21.3 17.9 -15 20.1 -7.3Z" fill="#56678f"></path></g><g transform="translate(29 537)"><path d="M16.8 -4.9C19.5 2.7 17.7 12.2 11.8 16.5C6 20.9 -3.9 19.9 -10.2 15.1C-16.5 10.2 -19.2 1.5 -16.9 -5.6C-14.7 -12.7 -7.3 -18.2 -0.1 -18.2C7.1 -18.1 14.2 -12.5 16.8 -4.9Z" fill="#56678f"></path></g><g transform="translate(84 11)"><path d="M16 -4.7C18.3 2.1 16.3 10.9 10.6 15.2C4.8 19.6 -4.6 19.4 -10.2 15.1C-15.8 10.8 -17.5 2.3 -15.2 -4.6C-12.9 -11.4 -6.4 -16.5 0.2 -16.5C6.8 -16.6 13.6 -11.6 16 -4.7Z" fill="#56678f"></path></g><g transform="translate(283 571)"><path d="M14.3 -5C16.3 1.7 14.4 9.4 9.4 13C4.4 16.6 -3.5 16.1 -9 12.1C-14.6 8.2 -17.8 0.7 -15.9 -5.8C-14 -12.4 -7 -17.9 -0.4 -17.7C6.1 -17.6 12.2 -11.8 14.3 -5Z" fill="#56678f"></path></g><g transform="translate(353 273)"><path d="M20.5 -7.2C23 0.9 18.8 10.6 11.9 15.4C4.9 20.2 -4.8 20.1 -12.1 15.2C-19.4 10.2 -24.2 0.4 -21.8 -7.7C-19.3 -15.8 -9.7 -22.1 -0.3 -22C9 -21.9 18.1 -15.4 20.5 -7.2Z" fill="#56678f"></path></g><g transform="translate(426 873)"><path d="M14.9 -5.6C16.5 0.2 13.2 6.8 7.9 10.6C2.6 14.3 -4.5 15.2 -8.8 12.1C-13 9 -14.4 1.9 -12.5 -4.3C-10.5 -10.6 -5.3 -16 0.7 -16.2C6.6 -16.4 13.3 -11.5 14.9 -5.6Z" fill="#56678f"></path></g><g transform="translate(237 110)"><path d="M16 -5.5C18.1 1.1 15.2 9 9.4 13.2C3.7 17.4 -4.8 17.9 -10.8 13.8C-16.7 9.7 -20.1 1 -17.9 -5.8C-15.6 -12.7 -7.8 -17.8 -0.4 -17.6C7 -17.5 14 -12.2 16 -5.5Z" fill="#56678f"></path></g><g transform="translate(445 763)"><path d="M15.8 -4.7C17.9 1.4 15.4 9.6 10.2 13.1C5 16.6 -2.7 15.6 -7.8 11.7C-12.9 7.8 -15.3 1 -13.5 -4.6C-11.8 -10.3 -5.9 -14.8 0.5 -15C6.8 -15.1 13.7 -10.9 15.8 -4.7Z" fill="#56678f"></path></g></g></svg>