<?xml version="1.0" standalone="no"?>
<!DOCTYPE svg PUBLIC "-//W3C//DTD SVG 20010904//EN"
 "http://www.w3.org/TR/2001/REC-SVG-20010904/DTD/svg10.dtd">
<svg version="1.0" xmlns="http://www.w3.org/2000/svg"
 width="1000.000000pt" height="1500.000000pt" viewBox="0 0 1000.000000 1500.000000"
 preserveAspectRatio="xMidYMid meet">

<g transform="translate(0.000000,1500.000000) scale(0.100000,-0.100000)"
fill="#000000" stroke="none">
<path d="M7100 10131 c6 -12 20 -21 32 -21 12 0 19 1 17 3 -2 2 -17 11 -32 21
-28 17 -28 17 -17 -3z"/>
<path d="M7024 10088 l-19 -23 23 19 c21 18 27 26 19 26 -2 0 -12 -10 -23 -22z"/>
<path d="M7001 10042 c-4 -79 72 -97 189 -44 74 33 113 32 136 -3 14 -21 15
-30 5 -52 -11 -23 -10 -25 3 -13 28 22 20 75 -15 104 -40 34 -75 33 -159 -4
-95 -42 -141 -37 -153 15 -4 18 -5 17 -6 -3z"/>
<path d="M6874 9915 c-23 -31 -28 -69 -7 -63 5 2 59 -30 122 -70 102 -66 113
-75 108 -98 -2 -13 -4 -23 -2 -22 1 2 24 27 51 57 33 36 40 49 22 37 -31 -20
-25 -23 -175 72 -102 64 -118 83 -91 110 7 7 9 12 6 12 -4 0 -19 -16 -34 -35z"/>
<path d="M7166 9891 c23 -20 88 -54 77 -40 -7 9 -10 18 -8 21 3 3 -13 10 -36
16 -23 6 -38 7 -33 3z"/>
<path d="M6644 9658 c-16 -18 -21 -26 -12 -19 10 7 27 11 38 8 11 -3 20 -2 20
3 0 4 75 -8 167 -26 91 -19 168 -32 170 -30 3 2 -3 17 -13 31 -10 15 -20 23
-21 18 -2 -6 -58 1 -141 18 -75 15 -146 28 -158 29 -11 0 -33 -14 -50 -32z"/>
<path d="M6820 9556 c0 -3 9 -10 20 -16 11 -6 20 -8 20 -6 0 3 -9 10 -20 16
-11 6 -20 8 -20 6z"/>
<path d="M6884 9513 c11 -14 17 -32 14 -47 -6 -32 2 -27 43 27 18 23 26 36 19
30 -8 -7 -26 -13 -40 -13 -14 0 -32 6 -40 13 -8 6 -6 2 4 -10z"/>
<path d="M6439 9433 c-19 -21 -42 -47 -49 -58 -14 -20 -14 -20 7 -2 26 22 25
23 171 -75 93 -62 103 -72 99 -95 -4 -20 -2 -22 8 -11 70 77 104 118 79 96
-16 -16 -36 -28 -42 -28 -20 0 -252 159 -252 173 0 7 5 18 12 25 7 7 10 12 7
12 -3 0 -21 -17 -40 -37z"/>
<path d="M6770 9425 c0 -3 7 -17 16 -31 14 -21 15 -29 5 -52 l-13 -27 31 29
c17 17 31 32 31 35 0 8 -70 53 -70 46z"/>
<path d="M9949 9394 c-8 -9 -5 -11 10 -7 12 3 21 1 21 -3 0 -9 -39 -38 -52
-39 -4 0 -13 -6 -20 -14 -11 -12 -11 -13 1 -6 11 6 13 4 8 -11 -6 -16 -5 -17
5 -4 7 8 27 26 43 40 17 14 30 32 31 41 1 18 -33 20 -47 3z"/>
<path d="M9895 9360 c-10 -11 -13 -20 -8 -20 13 0 38 29 31 35 -3 3 -13 -4
-23 -15z"/>
<path d="M9817 9308 c-27 -20 -28 -38 -1 -38 8 0 14 9 14 19 0 11 6 21 13 24
6 2 10 7 7 10 -3 3 -17 -4 -33 -15z"/>
<path d="M9874 9275 c-10 -8 -27 -15 -36 -15 -10 0 -18 -7 -18 -16 0 -8 -5
-12 -10 -9 -6 4 -8 11 -5 16 4 5 -1 9 -9 9 -19 0 -22 -40 -3 -40 6 -1 -1 -7
-18 -16 -22 -11 -24 -13 -7 -10 31 6 28 -12 -3 -20 -14 -3 -32 -19 -40 -35
-27 -52 -16 -51 35 3 28 29 71 74 97 101 47 47 54 60 17 32z"/>
<path d="M6219 9173 c11 -21 45 -63 36 -45 -3 6 -1 12 5 12 14 0 144 -32 149
-37 5 -4 -70 -83 -79 -83 -3 0 -18 20 -33 45 -16 25 -31 45 -34 45 -5 0 -3 -3
69 -114 43 -65 57 -94 52 -110 -5 -18 -2 -17 25 8 37 36 39 45 7 39 -18 -4
-30 3 -50 30 -31 41 -28 52 27 106 35 33 35 33 86 21 58 -14 68 -24 50 -48 -7
-9 8 3 34 28 26 24 47 46 47 47 0 2 -10 1 -23 -2 -12 -3 -101 12 -196 35 -96
22 -176 40 -178 40 -2 0 1 -8 6 -17z"/>
<path d="M9667 9079 c11 -13 9 -19 -8 -35 -21 -19 -44 -54 -35 -54 2 0 18 17
35 39 29 36 30 40 13 52 -15 12 -16 12 -5 -2z"/>
<path d="M9551 8978 c-1 -11 -6 -15 -16 -12 -9 4 -15 0 -15 -10 0 -9 -5 -16
-11 -16 -5 0 -8 -4 -5 -9 3 -4 -6 -21 -20 -37 -37 -42 -58 -74 -51 -80 2 -3
22 17 43 43 43 52 52 65 72 88 7 9 11 23 9 33 -4 16 -5 16 -6 0z"/>
<path d="M6036 8966 c3 -9 -2 -16 -13 -18 -10 -3 4 -6 30 -9 41 -4 45 -2 30 9
-36 27 -53 33 -47 18z"/>
<path d="M5956 8908 c-39 -56 -1 -118 72 -118 23 0 67 11 98 25 72 32 118 33
138 3 23 -33 20 -56 -13 -89 -16 -16 -26 -29 -22 -29 17 0 61 58 67 88 6 27 2
36 -26 62 -42 39 -81 39 -181 -2 -67 -27 -82 -30 -104 -20 -35 16 -42 40 -22
74 19 33 15 37 -7 6z"/>
<path d="M9395 8790 c3 -5 8 -10 11 -10 2 0 4 5 4 10 0 6 -5 10 -11 10 -5 0
-7 -4 -4 -10z"/>
<path d="M9351 8738 c-14 -23 -14 -23 8 -4 22 20 25 26 13 26 -4 0 -13 -10
-21 -22z"/>
<path d="M5815 8728 c-28 -15 -103 -87 -127 -123 -12 -16 -15 -24 -8 -17 8 6
21 12 30 12 21 0 244 -158 248 -176 2 -8 -2 -21 -8 -29 -7 -8 -10 -15 -8 -15
3 0 29 28 59 63 29 34 44 54 33 45 -11 -10 -26 -18 -32 -18 -12 0 -122 69
-122 76 0 2 16 24 35 50 43 56 44 77 6 115 -31 31 -70 37 -106 17z m55 -34
c57 -38 63 -67 25 -113 l-26 -30 -64 45 c-36 25 -65 49 -65 54 0 16 62 60 84
60 12 0 33 -7 46 -16z"/>
<path d="M6125 8695 c35 -30 78 -56 58 -34 -19 19 -16 27 10 32 13 3 7 5 -16
6 -21 0 -48 6 -60 12 -16 7 -13 2 8 -16z"/>
<path d="M9325 8691 c-3 -5 -1 -12 5 -16 5 -3 10 1 10 9 0 18 -6 21 -15 7z"/>
<path d="M9650 8679 c0 -5 5 -7 10 -4 6 3 10 8 10 11 0 2 -4 4 -10 4 -5 0 -10
-5 -10 -11z"/>
<path d="M9290 8643 c0 -26 0 -26 19 -7 20 21 18 34 -5 34 -9 0 -14 -10 -14
-27z"/>
<path d="M3093 8587 c5 -35 -5 -58 -18 -37 -4 6 -11 5 -20 -3 -11 -10 -11 -16
2 -36 13 -20 13 -25 2 -32 -10 -6 -11 -11 -3 -16 42 -29 104 -80 108 -89 3 -8
-10 -7 -41 2 -57 17 -71 18 -56 3 6 -6 26 -14 44 -18 36 -7 55 -44 36 -69 -15
-19 -1 -27 85 -50 87 -23 109 -35 143 -83 29 -38 26 -47 -7 -26 -33 22 -165
60 -178 52 -17 -10 -1 -25 27 -25 15 0 34 -7 42 -15 9 -7 43 -19 76 -25 33 -5
65 -11 72 -13 20 -5 88 -100 75 -105 -7 -2 -10 -8 -7 -12 3 -5 11 -7 18 -4 7
2 18 -6 26 -18 10 -17 11 -23 2 -26 -8 -3 -5 -12 10 -28 32 -34 20 -38 -42
-11 -30 13 -67 27 -82 31 -24 6 -26 8 -13 21 8 8 19 15 25 15 24 0 9 18 -20
24 -21 4 -29 10 -26 20 8 21 1 23 -48 16 -25 -4 -48 -3 -51 2 -3 4 -10 6 -15
3 -5 -4 -13 5 -19 19 -5 14 -14 26 -20 26 -5 0 -18 8 -28 18 -23 23 -64 52
-74 52 -19 0 -5 -20 39 -54 56 -43 46 -48 -16 -7 -47 32 -50 31 -83 -21 -18
-28 -12 -74 13 -104 16 -19 6 -28 -56 -48 -111 -36 -101 -49 20 -25 114 23
112 23 111 -3 -1 -21 4 -23 67 -26 41 -2 74 2 82 8 8 7 19 9 24 5 6 -3 20 -1
32 5 18 10 29 7 71 -19 27 -17 55 -28 61 -24 7 3 9 3 5 -2 -4 -4 11 -21 32
-36 22 -16 40 -33 40 -38 0 -5 12 -29 26 -52 25 -43 25 -44 19 -11 -4 18 -13
45 -21 60 -8 15 -14 33 -14 40 0 6 -6 12 -13 12 -8 0 -31 16 -53 36 -21 19
-31 33 -21 30 10 -3 32 -6 48 -6 24 0 32 -6 40 -30 6 -16 15 -30 20 -30 4 0 5
-7 2 -17 -5 -12 -3 -14 8 -8 11 6 11 5 3 -4 -8 -9 -7 -23 3 -54 8 -23 16 -63
17 -89 1 -26 7 -53 13 -60 14 -18 63 -198 63 -231 0 -15 4 -27 10 -27 5 0 7
22 3 53 -3 28 -3 50 0 47 3 -3 11 -45 17 -94 11 -90 30 -131 89 -193 11 -12
30 -36 41 -55 11 -18 20 -28 20 -23 0 6 -11 28 -24 50 -90 149 -94 165 -30
126 20 -12 49 -50 78 -103 26 -45 58 -101 72 -123 30 -49 48 -87 45 -98 -1 -5
3 -6 8 -3 9 6 27 -31 23 -47 -1 -5 3 -5 9 -1 9 5 10 2 6 -10 -4 -9 -3 -14 2
-11 5 3 13 -4 16 -16 4 -11 9 -18 12 -16 6 6 -40 97 -107 213 -91 155 -102
176 -98 180 13 12 233 -200 324 -311 40 -49 80 -98 89 -107 8 -10 15 -20 14
-23 -4 -28 98 -372 107 -362 3 2 0 16 -5 30 -18 45 -92 400 -101 477 -17 151
-84 410 -102 392 -8 -8 1 -62 18 -112 3 -8 7 -40 9 -70 l3 -55 -44 94 c-24 51
-44 98 -44 104 0 20 -73 194 -104 247 -19 32 -42 95 -55 150 -36 155 -104 345
-121 343 -10 -2 -23 18 -39 62 -23 64 -41 91 -41 60 0 -8 14 -57 31 -108 44
-132 50 -152 40 -141 -5 5 -28 56 -50 114 -41 103 -116 254 -107 215 2 -11 8
-35 11 -54 5 -24 10 -30 16 -20 10 16 10 14 12 -57 l2 -51 -27 48 c-16 27 -28
54 -28 61 0 7 -5 31 -11 52 -8 29 -13 36 -20 25 -5 -8 -6 -22 -3 -31 3 -10 2
-18 -2 -18 -4 0 -16 8 -27 18 -23 19 -20 12 26 -58 l29 -45 -32 35 -31 35 25
-46 c36 -64 32 -79 -9 -39 -19 19 -34 41 -32 49 1 10 -6 16 -18 16 -15 0 -21
10 -28 45 -5 25 -13 50 -19 55 -7 7 -9 0 -4 -23 5 -31 4 -33 -16 -26 -21 6
-20 5 5 -25 27 -32 27 -40 11 -101 -2 -9 -14 -16 -25 -17 -12 -1 -19 1 -16 4
4 3 -9 25 -27 49 -19 24 -46 74 -62 111 -16 38 -43 95 -62 127 -52 94 -162
247 -173 241 -10 -7 -5 -19 17 -45 14 -17 54 -88 54 -96 0 -10 -45 50 -68 89
-12 21 -22 47 -22 57 0 10 -4 22 -10 25 -5 3 -10 -3 -10 -14 0 -35 -18 -32
-24 4 -9 48 -31 60 -23 12z m97 -247 c13 -8 13 -10 -2 -10 -9 0 -20 5 -23 10
-8 13 5 13 25 0z m7 -46 c-3 -3 -12 -4 -19 -1 -8 3 -5 6 6 6 11 1 17 -2 13 -5z
m124 -35 c11 -11 18 -23 15 -27 -4 -3 -19 6 -34 21 -14 15 -21 27 -14 27 6 0
21 -9 33 -21z m59 -50 c0 -13 -27 -11 -36 3 -4 7 -3 8 4 4 7 -4 12 -2 12 4 0
6 5 8 10 5 6 -3 10 -10 10 -16z m-242 -176 c11 -11 11 -13 -2 -13 -9 0 -16 -7
-16 -15 0 -17 -25 -20 -35 -5 -20 33 25 61 53 33z m615 -56 c10 -16 23 -25 29
-21 7 5 9 2 5 -9 -3 -9 -2 -19 3 -22 6 -4 10 -12 10 -20 0 -8 -20 4 -45 27
-25 23 -45 48 -45 57 0 12 6 9 21 -9 l20 -25 -15 32 c-9 17 -20 35 -26 38 -5
3 -10 11 -10 17 0 11 24 -17 53 -65z m-163 22 c0 -11 -4 -17 -10 -14 -5 3 -10
13 -10 21 0 8 5 14 10 14 6 0 10 -9 10 -21z m-340 -19 c0 -5 -9 -10 -21 -10
-11 0 -17 5 -14 10 3 6 13 10 21 10 8 0 14 -4 14 -10z m362 -44 c7 4 10 4 6
-1 -4 -4 -1 -20 7 -36 23 -44 18 -46 -20 -9 -35 33 -52 77 -20 50 8 -6 20 -8
27 -4z m212 -2 c3 -8 2 -12 -4 -9 -6 3 -10 10 -10 16 0 14 7 11 14 -7z m-608
-19 c-22 -17 -56 -20 -56 -6 0 9 25 17 60 19 11 1 10 -3 -4 -13z m604 -99 c0
-13 -38 23 -63 59 -17 26 -15 25 21 -10 23 -21 42 -43 42 -49z m-84 16 c20
-16 64 -82 64 -96 0 -13 -16 -4 -53 29 -24 21 -44 32 -55 29 -10 -4 -13 -2 -7
3 6 4 10 14 11 21 3 38 8 40 40 14z m-73 -66 c3 -47 -20 -40 -37 10 -22 65
-20 73 9 43 14 -14 27 -38 28 -53z m201 22 c-4 -6 -10 -5 -15 3 -14 22 -10 33
6 19 8 -7 12 -17 9 -22z m-98 -147 c-3 -19 -11 -39 -17 -45 -9 -8 -10 -3 -5
23 5 29 4 32 -9 21 -8 -7 -15 -25 -15 -41 0 -32 -11 -37 -33 -15 -19 19 -32
115 -18 129 6 6 11 22 11 37 0 23 3 22 45 -25 39 -43 45 -55 41 -84z m134 100
c25 -36 53 -101 46 -108 -2 -3 -14 12 -26 34 -11 21 -30 53 -41 71 -26 40 -8
43 21 3z m60 -270 c58 -62 107 -117 108 -122 2 -5 -46 22 -107 61 -65 42 -115
69 -122 64 -7 -4 -9 -3 -5 4 4 6 -4 16 -16 23 -50 26 -57 38 -44 72 7 18 16
41 20 52 7 19 9 18 34 -11 15 -17 74 -82 132 -143z m-27 88 c42 -57 20 -42
-35 23 -25 31 -34 46 -20 36 13 -9 38 -35 55 -59z m60 6 c13 -26 13 -33 3 -29
-8 3 -17 13 -20 22 -3 9 -9 23 -12 30 -3 6 -2 12 3 12 5 0 17 -16 26 -35z
m-258 -25 c3 -6 -1 -7 -9 -4 -18 7 -21 14 -7 14 6 0 13 -4 16 -10z m-15 -70
c0 -17 -4 -30 -10 -30 -5 0 -10 11 -10 24 0 14 -4 28 -10 31 -20 12 -10 26 10
15 13 -7 20 -21 20 -40z m97 -33 c133 -86 328 -241 338 -269 3 -10 12 -24 20
-31 7 -7 25 -37 40 -67 20 -40 29 -50 36 -39 7 10 8 6 5 -13 -3 -16 -1 -28 4
-28 4 0 11 -21 15 -47 4 -27 11 -56 17 -67 8 -14 7 -17 -3 -11 -9 6 -11 3 -6
-11 4 -13 1 -11 -11 6 -31 45 -125 154 -165 193 -22 21 -38 39 -36 42 7 6 124
-66 142 -88 16 -20 17 -20 10 -2 -13 36 -113 108 -268 191 -49 26 -92 51 -95
55 -6 7 -63 22 -107 27 -10 2 -13 29 -13 102 0 55 2 100 5 100 3 0 35 -20 72
-43z m208 -92 c37 -21 103 -91 94 -99 -2 -2 -37 25 -76 60 -40 35 -70 64 -66
64 3 0 25 -11 48 -25z"/>
<path d="M3750 7951 c0 -5 5 -13 10 -16 6 -3 10 -2 10 4 0 5 -4 13 -10 16 -5
3 -10 2 -10 -4z"/>
<path d="M1670 8476 c0 -2 26 -27 58 -54 38 -33 63 -48 71 -43 9 6 -6 22 -49
55 -55 41 -80 54 -80 42z"/>
<path d="M9975 8443 c-11 -15 -28 -35 -37 -45 -10 -10 -15 -18 -10 -18 4 0 -8
-9 -25 -20 -34 -20 -45 -37 -18 -26 8 3 15 1 15 -3 0 -5 -7 -12 -16 -15 -8 -3
-12 -11 -8 -17 4 -7 0 -9 -14 -5 -24 8 -87 -44 -87 -72 0 -10 -5 -16 -11 -15
-7 1 -17 -11 -24 -27 -7 -17 -16 -30 -21 -30 -5 0 -14 -10 -20 -22 -11 -21
-11 -22 5 -9 14 12 14 7 -5 -28 -16 -31 -24 -39 -30 -29 -6 9 -9 9 -9 1 0 -6
5 -15 10 -18 15 -9 2 -25 -15 -18 -11 4 -13 1 -9 -11 4 -9 3 -16 -2 -15 -32 6
-43 -2 -35 -23 12 -33 27 -32 52 4 25 35 38 48 54 48 5 0 4 -5 -3 -12 -17 -17
-15 -28 5 -28 15 0 14 -2 -3 -14 -16 -13 -20 -13 -24 0 -4 11 -11 7 -28 -16
-24 -32 -52 -40 -52 -15 0 8 -7 15 -17 15 -9 0 -13 -3 -10 -7 4 -3 2 -12 -5
-20 -6 -7 -8 -16 -4 -20 3 -3 6 -1 6 5 0 7 6 12 14 12 10 0 13 -10 11 -35 -2
-19 0 -35 5 -35 4 0 10 -7 13 -14 4 -10 1 -13 -8 -10 -16 7 -75 -50 -75 -71 0
-24 17 -17 24 10 5 21 9 23 20 13 8 -7 12 -16 9 -21 -2 -4 7 -2 22 5 14 6 28
22 31 35 4 13 12 23 20 23 7 0 11 6 8 14 -6 15 32 56 52 56 6 0 14 7 18 15 4
10 -1 15 -14 15 -11 0 -20 -7 -20 -15 0 -8 -6 -12 -14 -9 -8 3 -21 -5 -30 -18
-12 -17 -16 -19 -16 -6 0 9 6 19 13 21 9 4 9 7 -1 15 -10 7 -10 11 2 21 11 9
16 9 22 0 4 -8 3 -9 -4 -5 -7 4 -12 2 -12 -3 0 -6 6 -11 13 -11 18 1 47 25 47
40 0 7 8 10 19 7 13 -3 18 -1 14 8 -3 9 2 12 15 8 18 -4 21 1 27 41 6 41 9 44
20 29 11 -15 12 -15 10 8 -2 15 7 36 21 52 24 28 24 28 25 5 1 -20 2 -21 6 -3
3 11 10 23 17 27 18 12 24 90 6 96 -5 2 -10 11 -10 20 1 15 2 15 11 0 5 -10
18 -18 29 -18 14 0 17 5 12 22 -4 16 -2 20 10 15 11 -4 18 1 21 14 5 20 -7 26
-18 9 -3 -5 -11 -10 -17 -10 -7 0 -6 6 2 15 7 8 21 15 31 15 13 0 17 5 12 18
-4 9 -11 21 -17 25 -7 6 -4 7 7 3 12 -4 17 0 17 14 0 14 -5 18 -17 13 -10 -4
-14 -2 -10 4 4 6 1 14 -5 17 -7 4 -3 4 10 2 18 -3 21 -1 13 8 -7 9 -7 16 1 24
6 6 10 14 7 16 -3 3 -14 -7 -24 -21z m-95 -283 c0 -5 -4 -10 -10 -10 -5 0 -10
5 -10 10 0 6 5 10 10 10 6 0 10 -4 10 -10z m-113 -32 c-3 -8 -6 -5 -6 6 -1 11
2 17 5 13 3 -3 4 -12 1 -19z m63 -13 c0 -12 -19 -12 -23 0 -4 9 -1 12 9 8 7
-3 14 -7 14 -8z m-46 -69 c-3 -9 -10 -16 -16 -16 -5 0 -7 -3 -5 -7 3 -5 -1
-14 -9 -20 -10 -10 -15 -10 -20 -1 -4 7 -2 14 4 16 7 2 12 8 12 14 0 11 32 39
38 34 1 -2 0 -11 -4 -20z m-152 -148 c-7 -7 -12 -8 -12 -2 0 14 12 26 19 19 2
-3 -1 -11 -7 -17z"/>
<path d="M9875 8440 c-3 -5 -1 -10 4 -10 6 0 11 5 11 10 0 6 -2 10 -4 10 -3 0
-8 -4 -11 -10z"/>
<path d="M1660 8433 c0 -13 120 -138 134 -138 6 -1 10 -6 9 -13 -2 -6 7 -22
20 -35 12 -13 35 -40 50 -60 15 -21 33 -37 39 -37 7 0 0 12 -14 28 -14 15 -31
37 -37 50 -10 19 -9 22 9 22 27 0 70 -23 93 -49 23 -28 22 -34 -5 -26 -22 6
-22 6 -4 -9 11 -9 23 -16 27 -16 4 0 10 -9 14 -19 3 -11 16 -23 28 -27 25 -7
57 -33 57 -46 0 -17 -40 -7 -60 14 -16 17 -24 20 -37 12 -11 -7 -41 -7 -95 1
-56 8 -78 9 -75 1 4 -13 134 -36 157 -28 13 5 13 3 -1 -14 -9 -10 -15 -23 -13
-29 2 -5 -11 -20 -29 -33 l-32 -23 30 7 c17 4 43 18 59 33 16 14 26 21 23 15
-6 -11 26 -22 278 -93 58 -17 60 -18 63 -54 3 -29 0 -36 -11 -31 -8 3 -18 1
-22 -5 -3 -6 2 -11 12 -12 10 0 13 -3 6 -6 -7 -2 -47 3 -89 12 -41 10 -91 15
-111 12 -19 -3 -73 1 -120 10 -58 10 -88 12 -95 5 -10 -10 33 -25 155 -52 31
-7 57 -17 57 -22 0 -4 44 -8 98 -9 l97 0 -81 -28 c-44 -15 -86 -31 -94 -36 -8
-5 -17 -2 -24 7 -6 8 -22 17 -35 21 -20 5 -23 3 -18 -19 6 -33 -6 -38 -42 -19
-38 19 -37 19 -36 -10 0 -15 18 -46 43 -75 49 -57 51 -55 -66 -70 -2 0 0 -4 3
-10 3 -5 25 -11 48 -12 l42 -1 -45 -7 c-51 -7 -42 -11 60 -29 30 -5 66 -14 80
-19 24 -9 22 -11 -34 -38 -72 -35 -83 -54 -31 -54 27 0 36 4 32 14 -4 9 25 26
97 55 100 40 103 41 135 25 45 -22 131 -22 147 1 7 10 50 32 95 50 78 32 83
33 123 19 22 -7 111 -37 196 -65 85 -28 158 -54 162 -58 4 -3 -68 -2 -160 3
-133 6 -173 5 -197 -5 -29 -13 -28 -14 40 -17 39 -1 162 -9 275 -16 194 -13
210 -16 300 -50 l95 -36 -60 7 c-84 9 -335 8 -362 -1 -13 -4 -23 -12 -23 -17
0 -6 5 -7 10 -4 37 23 239 -17 620 -120 24 -7 24 -7 5 7 -26 19 -118 54 -225
84 l-85 23 72 -2 c56 -2 69 1 61 11 -14 16 -5 15 39 -3 39 -16 58 -13 25 4
-55 30 -219 98 -302 127 -69 24 -87 33 -65 34 l30 1 -25 14 c-14 8 -34 14 -46
15 -20 0 -385 88 -391 94 -2 1 15 13 37 25 l40 23 125 -42 c69 -23 125 -46
125 -51 0 -6 4 -8 9 -4 5 3 50 -14 100 -38 50 -24 91 -41 91 -38 0 3 -28 22
-62 41 -56 32 -86 53 -161 110 -15 12 -60 63 -101 113 -41 51 -113 134 -161
186 -75 80 -86 97 -81 120 17 79 36 228 31 248 -11 47 -22 20 -39 -101 -27
-198 -23 -193 -81 -95 -32 55 -57 114 -71 169 -24 93 -43 140 -56 140 -5 0 -6
-12 -2 -27 l6 -28 -21 25 c-25 30 -25 30 -6 -40 8 -30 12 -57 9 -60 -3 -3 -26
18 -50 45 -72 83 -49 29 30 -70 22 -27 51 -61 63 -74 35 -37 17 -39 -20 -3
-18 18 -38 32 -44 32 -7 0 -28 24 -47 53 -19 29 -47 64 -62 77 l-28 25 23 -39
c12 -21 20 -40 17 -43 -2 -2 -22 13 -45 35 -23 22 -43 37 -45 33 -10 -17 20
-55 83 -105 112 -90 93 -83 -58 19 -145 98 -200 123 -133 60 35 -34 36 -35 9
-25 -63 22 -11 -13 86 -59 56 -26 109 -56 117 -66 17 -22 28 -25 -98 29 -45
20 -94 47 -109 60 -17 16 -45 28 -73 32 -25 3 -56 13 -68 21 -34 21 -38 9 -8
-22 14 -14 26 -31 26 -38 0 -6 -20 9 -45 33 -35 34 -45 51 -45 76 0 18 -4 36
-10 39 -6 4 -10 -5 -10 -19 0 -33 -10 -33 -40 -1 -13 14 -27 25 -32 25 -14 0
8 -33 43 -68 30 -30 30 -47 0 -19 -11 10 -13 10 -7 0 5 -8 1 -13 -9 -13 -9 0
-47 31 -83 68 -79 81 -112 109 -112 95z m658 -333 c87 -38 138 -67 177 -101
30 -26 70 -60 89 -74 25 -19 35 -35 39 -66 3 -22 11 -47 19 -56 15 -19 175
-138 231 -172 58 -36 44 -34 -30 3 -38 19 -78 37 -90 40 -11 4 -23 13 -26 20
-9 22 -112 76 -148 77 -19 1 -46 4 -61 8 -24 5 -25 8 -13 25 8 10 19 15 25 11
9 -6 9 -9 1 -15 -7 -3 2 -7 19 -7 l30 0 -38 23 c-46 29 -52 29 -52 3 0 -11 -4
-17 -10 -14 -5 3 -10 1 -10 -4 0 -6 -7 -11 -16 -11 -13 0 -14 3 -5 14 14 17
-2 31 -21 20 -7 -4 -10 -4 -6 1 4 4 3 14 -4 22 -14 17 -3 29 15 17 7 -5 2 1
-12 13 -39 34 -120 71 -206 94 -44 11 -82 23 -85 26 -5 5 55 -3 95 -13 45 -12
-11 17 -65 32 -51 15 -69 28 -70 47 0 18 37 3 123 -47 51 -30 128 -71 172 -91
44 -20 97 -45 118 -56 45 -24 47 -18 6 29 -17 20 -38 50 -45 69 -17 39 -31 42
-44 9 -5 -13 -14 -26 -21 -28 -24 -8 -159 84 -195 133 -34 47 -45 86 -21 76 6
-3 67 -29 135 -57z m-153 -10 c23 -25 14 -25 -27 0 -27 16 -29 20 -12 20 11 0
29 -9 39 -20z m386 -43 c12 -22 12 -22 -10 -3 -11 11 -21 23 -21 28 0 14 19
-1 31 -25z m39 -52 c14 -19 14 -19 -2 -6 -10 7 -18 18 -18 24 0 6 1 8 3 6 1
-2 9 -13 17 -24z m184 -180 c38 -44 95 -106 125 -137 30 -32 52 -58 48 -58 -4
0 -32 18 -62 40 -46 34 -89 83 -204 232 -12 14 -21 34 -21 43 0 13 6 10 22
-11 12 -16 53 -65 92 -109z m-64 -18 l35 -41 -34 19 c-19 11 -38 30 -42 43
-12 32 1 26 41 -21z m-304 -64 c5 -17 3 -28 -4 -31 -7 -2 -12 -19 -12 -38 0
-27 4 -34 20 -34 11 0 20 -4 20 -10 0 -15 -47 -23 -88 -14 -20 4 -43 8 -49 7
-9 0 -13 14 -13 43 0 23 -5 46 -11 50 -11 6 89 52 118 53 7 1 16 -11 19 -26z
m154 -18 c0 -8 -6 -15 -14 -15 -17 0 -28 14 -19 24 12 12 33 6 33 -9z m-320
-55 c0 -49 -1 -50 -30 -50 -23 0 -35 7 -50 32 -11 18 -16 36 -12 39 6 7 65 26
85 28 4 1 7 -21 7 -49z m460 -10 c45 0 63 -17 25 -25 -55 -11 -71 -12 -95 -6
l-25 7 23 13 c12 6 20 16 17 22 -4 5 -3 15 2 22 6 8 9 5 11 -10 3 -19 10 -23
42 -23z m-120 -55 c0 -2 -33 -14 -72 -26 -40 -12 -86 -28 -102 -36 -15 -8 -31
-11 -35 -6 -3 4 -4 7 -2 6 2 -2 9 1 15 6 6 5 45 18 86 30 41 13 80 24 85 26
16 5 25 5 25 0z m-495 -85 c3 -5 1 -10 -4 -10 -6 0 -11 5 -11 10 0 6 2 10 4
10 3 0 8 -4 11 -10z m58 -7 c-7 -2 -21 -2 -30 0 -10 3 -4 5 12 5 17 0 24 -2
18 -5z m77 -3 c0 -5 -7 -10 -16 -10 -8 0 -12 5 -9 10 3 6 10 10 16 10 5 0 9
-4 9 -10z"/>
<path d="M1353 8352 c10 -10 14 -22 10 -26 -5 -4 -3 -6 2 -5 6 2 26 -5 45 -15
l35 -17 -42 40 c-42 41 -82 59 -50 23z"/>
<path d="M9056 8355 c-3 -8 -1 -15 4 -15 6 0 10 7 10 15 0 8 -2 15 -4 15 -2 0
-6 -7 -10 -15z"/>
<path d="M9760 8340 c0 -5 5 -10 11 -10 5 0 7 5 4 10 -3 6 -8 10 -11 10 -2 0
-4 -4 -4 -10z"/>
<path d="M1479 8328 c-3 -29 4 -54 17 -61 7 -4 11 -14 8 -22 -5 -11 1 -15 22
-15 15 0 25 -3 21 -6 -8 -9 -87 6 -87 17 0 4 7 6 15 3 24 -10 17 12 -7 23 -48
23 -89 35 -95 29 -3 -3 0 -6 9 -6 15 0 58 -32 58 -44 0 -4 -12 0 -27 7 -16 8
-53 17 -83 20 -36 4 -48 3 -35 -3 11 -5 32 -9 46 -9 36 -1 121 -40 114 -52 -4
-5 2 -9 12 -9 15 0 16 -2 3 -10 -13 -8 -13 -10 1 -10 9 0 20 -7 23 -16 7 -17
37 -17 190 3 l49 6 -29 12 c-16 7 -32 10 -36 8 -4 -2 -5 3 -2 11 4 11 0 16
-12 16 -30 1 -146 56 -156 75 -5 9 -7 23 -4 31 3 8 1 14 -4 14 -6 0 -11 -6
-11 -12z m126 -108 c3 -5 -3 -10 -14 -10 -12 0 -21 5 -21 10 0 6 6 10 14 10 8
0 18 -4 21 -10z"/>
<path d="M1317 8319 c7 -7 15 -10 18 -7 3 3 -2 9 -12 12 -14 6 -15 5 -6 -5z"/>
<path d="M8915 8319 c-4 -6 -5 -12 -2 -15 2 -3 7 2 10 11 7 17 1 20 -8 4z"/>
<path d="M9026 8303 c-6 -14 -5 -15 5 -6 7 7 10 15 7 18 -3 3 -9 -2 -12 -12z"/>
<path d="M3070 8299 c0 -6 -7 -9 -15 -5 -8 3 -29 -8 -48 -27 -22 -20 -42 -31
-56 -29 -11 2 -21 -1 -21 -7 0 -6 5 -11 10 -11 6 0 10 -17 10 -38 l0 -38 47
-3 c45 -2 46 -1 31 16 -22 26 -26 46 -12 60 19 20 40 15 58 -12 19 -29 41 -33
33 -6 -2 10 0 26 5 35 8 14 5 21 -11 32 -11 8 -18 21 -15 29 4 8 1 15 -5 15
-6 0 -11 -5 -11 -11z"/>
<path d="M9050 8300 c0 -5 5 -10 10 -10 6 0 10 5 10 10 0 6 -4 10 -10 10 -5 0
-10 -4 -10 -10z"/>
<path d="M9693 8260 c-24 -26 -43 -53 -43 -60 0 -8 8 -4 19 8 10 12 22 22 27
22 12 1 55 69 46 73 -4 2 -26 -18 -49 -43z"/>
<path d="M9007 8234 c-15 -18 -33 -32 -40 -30 -7 1 -9 1 -4 -1 4 -3 5 -9 1
-14 -3 -5 -1 -9 5 -9 10 0 76 79 70 84 -2 2 -17 -12 -32 -30z"/>
<path d="M9126 8191 c-4 -7 -5 -15 -2 -18 9 -9 19 4 14 18 -4 11 -6 11 -12 0z"/>
<path d="M9620 8186 c0 -4 7 -14 15 -22 8 -9 15 -11 15 -6 0 5 -7 15 -15 22
-8 7 -15 9 -15 6z"/>
<path d="M8930 8154 c0 -14 3 -14 15 -4 8 7 15 14 15 16 0 2 -7 4 -15 4 -8 0
-15 -7 -15 -16z"/>
<path d="M9592 8161 c-11 -6 -10 -10 3 -15 22 -8 3 -33 -28 -38 -14 -2 -21 -9
-19 -19 1 -9 -18 -37 -43 -62 -25 -26 -50 -57 -55 -69 -5 -13 -9 -16 -9 -8 -1
8 6 27 13 43 8 15 12 27 8 27 -15 -1 -42 -28 -42 -42 0 -9 -10 -27 -21 -42
-22 -28 -19 -47 4 -28 16 13 42 -1 32 -18 -4 -6 -14 -9 -22 -6 -10 4 -13 1 -8
-13 3 -11 1 -22 -5 -26 -5 -3 -10 -1 -10 4 0 6 -3 11 -7 11 -9 0 -55 -112 -48
-118 5 -6 41 30 38 37 -2 3 3 6 10 6 6 0 12 5 12 10 0 6 6 19 12 30 12 20 12
20 13 -2 0 -12 -4 -25 -10 -28 -5 -3 -10 -15 -10 -26 0 -10 -6 -19 -14 -19 -8
0 -17 -7 -20 -16 -3 -9 -12 -14 -19 -11 -6 2 -31 -9 -55 -25 -24 -17 -46 -27
-49 -24 -6 6 -33 -19 -33 -31 0 -4 -13 -14 -28 -21 -33 -14 -64 -66 -34 -55
12 5 11 -1 -7 -20 -13 -15 -29 -24 -34 -20 -7 4 -8 0 -4 -11 5 -14 3 -17 -8
-12 -8 3 -15 1 -15 -4 0 -6 5 -10 11 -10 5 0 7 -5 4 -10 -4 -6 -10 -8 -15 -5
-5 3 -14 -3 -19 -14 -15 -28 -14 -41 4 -35 17 7 20 -11 4 -22 -7 -4 -16 1 -21
10 -11 19 -30 12 -22 -9 3 -8 2 -20 -2 -27 -14 -21 -15 -48 -2 -48 6 0 8 -3 5
-6 -4 -4 -13 -2 -21 5 -11 9 -18 5 -34 -22 -11 -19 -23 -45 -27 -58 -4 -13
-18 -35 -32 -48 -13 -13 -21 -26 -19 -28 8 -9 46 8 41 18 -4 5 1 9 10 9 9 0
13 -4 10 -10 -3 -6 1 -7 9 -4 9 3 16 15 16 26 0 10 4 17 9 13 5 -3 12 -1 15 4
11 18 -12 21 -29 5 -9 -9 -18 -14 -21 -11 -7 7 47 44 71 48 11 2 24 13 30 24
11 21 35 32 35 15 0 -6 -4 -10 -9 -10 -5 0 -11 -7 -15 -15 -4 -12 -2 -13 14
-2 11 6 20 17 20 24 0 7 4 13 10 13 5 0 14 9 20 21 9 15 8 24 -2 37 -11 13
-11 15 3 10 12 -5 28 6 53 34 20 22 34 43 32 47 -3 4 11 6 30 6 19 -1 37 2 40
7 3 4 -2 8 -10 8 -9 0 -16 5 -16 11 0 6 6 9 13 6 11 -3 50 46 52 66 0 12 27
26 39 21 12 -4 59 57 50 65 -3 3 -10 -2 -15 -12 -11 -18 -39 -24 -39 -7 0 6 5
10 11 10 6 0 9 7 5 15 -4 11 2 15 22 16 15 1 31 1 35 0 5 -1 4 6 -1 16 -8 13
-5 20 10 28 20 10 51 79 40 89 -3 3 5 13 17 23 15 13 18 22 11 33 -8 13 -11
12 -24 -5 -14 -17 -17 -18 -26 -5 -5 8 -10 20 -10 25 0 6 5 3 10 -5 9 -13 13
-11 31 9 14 17 16 26 9 31 -7 5 -3 9 10 13 13 3 19 10 15 16 -3 6 -11 9 -16 6
-5 -4 -9 -2 -9 3 0 16 13 22 27 11 10 -9 17 -8 28 1 13 11 13 15 3 22 -11 6
-11 10 0 16 7 5 10 16 7 24 -4 10 1 17 16 21 14 4 20 11 16 21 -4 9 -1 15 5
13 6 -1 13 4 16 12 3 9 0 11 -9 7 -8 -4 -5 0 6 9 19 15 19 17 3 29 -10 7 -15
16 -11 19 9 10 1 8 -15 -2z m-152 -311 c0 -5 -2 -10 -4 -10 -3 0 -8 5 -11 10
-3 6 -1 10 4 10 6 0 11 -4 11 -10z m27 -52 c-3 -8 -6 -5 -6 6 -1 11 2 17 5 13
3 -3 4 -12 1 -19z m-35 -23 c-9 -19 -17 -33 -19 -31 -6 5 19 66 27 66 4 0 0
-16 -8 -35z m28 -25 c0 -5 -2 -10 -4 -10 -3 0 -8 5 -11 10 -3 6 -1 10 4 10 6
0 11 -4 11 -10z m-120 -85 c0 -7 -7 -18 -15 -25 -13 -10 -15 -9 -15 12 0 15 6
25 15 25 8 0 15 -6 15 -12z m-66 -41 c9 -1 16 5 16 14 0 12 4 9 13 -8 14 -26
12 -44 -2 -21 -7 10 -12 8 -25 -10 -9 -13 -16 -30 -16 -38 0 -32 -10 -1 -15
45 -4 33 -2 44 4 35 5 -8 17 -16 25 -17z m76 2 c0 -3 -4 -8 -10 -11 -5 -3 -10
-1 -10 4 0 6 5 11 10 11 6 0 10 -2 10 -4z m-147 -13 c9 -9 -12 -33 -29 -33
-12 0 -12 4 -2 20 14 21 21 24 31 13z m37 -43 c0 -5 -4 -10 -10 -10 -5 0 -10
5 -10 10 0 6 5 10 10 10 6 0 10 -4 10 -10z m53 -28 c-3 -12 -9 -22 -14 -22
-12 0 -11 7 2 32 13 25 20 19 12 -10z m-93 -17 c0 -2 -3 -10 -6 -19 -9 -24
-19 -19 -19 8 0 15 5 22 13 19 6 -3 12 -7 12 -8z m46 -12 c-10 -10 -19 5 -10
18 6 11 8 11 12 0 2 -7 1 -15 -2 -18z m-86 -27 c0 -2 -7 -7 -16 -10 -8 -3 -12
-2 -9 4 6 10 25 14 25 6z m-106 -121 c3 -9 0 -15 -9 -15 -9 0 -12 6 -9 15 4 8
7 15 9 15 2 0 5 -7 9 -15z m71 -15 c-3 -5 -12 -10 -18 -10 -7 0 -6 4 3 10 19
12 23 12 15 0z"/>
<path d="M9948 8144 c-4 -3 -4 -13 -1 -22 4 -10 2 -13 -5 -8 -7 4 -12 2 -12
-3 0 -15 15 -14 28 2 11 13 1 43 -10 31z"/>
<path d="M8906 8125 c-3 -8 -1 -15 4 -15 13 0 22 18 11 24 -5 3 -11 -1 -15 -9z"/>
<path d="M1665 8120 c18 -7 19 -8 3 -15 -10 -4 -18 -13 -18 -20 0 -7 -17 -17
-37 -23 -72 -19 0 -12 88 9 90 21 113 35 60 37 -17 0 -39 5 -50 11 -11 6 -30
11 -43 10 -22 0 -22 -1 -3 -9z m32 -36 c-3 -3 -12 -4 -19 -1 -8 3 -5 6 6 6 11
1 17 -2 13 -5z"/>
<path d="M8800 8114 c0 -8 5 -12 10 -9 6 4 8 11 5 16 -9 14 -15 11 -15 -7z"/>
<path d="M9969 8097 c-14 -17 -28 -40 -32 -49 -3 -10 -13 -18 -22 -18 -8 0
-15 -7 -15 -15 0 -13 4 -14 20 -5 11 6 20 8 20 4 0 -9 -52 -78 -62 -82 -4 -2
-8 -10 -8 -18 0 -8 -4 -14 -10 -14 -13 0 -13 23 1 37 6 6 7 13 2 16 -5 3 -16
-8 -25 -24 -10 -16 -13 -29 -8 -29 6 0 10 -5 10 -11 0 -6 -9 -8 -20 -4 -14 4
-20 2 -20 -8 0 -23 22 -25 42 -5 10 10 24 18 32 18 8 0 19 15 25 33 13 37 47
71 63 61 7 -4 6 -10 -3 -16 -10 -6 -7 -8 11 -6 21 3 25 9 28 42 2 25 0 36 -7
31 -6 -3 -11 -16 -11 -28 0 -19 -2 -20 -15 -7 -11 11 -12 23 -6 45 5 17 10 24
10 18 1 -7 6 -13 12 -13 6 0 9 7 5 15 -3 8 -1 15 4 15 5 0 9 11 8 25 -1 14 -3
25 -3 25 0 0 -12 -15 -26 -33z"/>
<path d="M1503 8043 c15 -2 37 -2 50 0 12 2 0 4 -28 4 -27 0 -38 -2 -22 -4z"/>
<path d="M9475 8040 c-3 -5 -1 -10 4 -10 6 0 11 5 11 10 0 6 -2 10 -4 10 -3 0
-8 -4 -11 -10z"/>
<path d="M8722 8000 c0 -14 2 -19 5 -12 2 6 2 18 0 25 -3 6 -5 1 -5 -13z"/>
<path d="M8794 8006 c-10 -8 -16 -18 -11 -22 4 -4 16 2 27 14 23 25 14 29 -16
8z"/>
<path d="M9830 8010 c0 -5 5 -10 10 -10 6 0 10 5 10 10 0 6 -4 10 -10 10 -5 0
-10 -4 -10 -10z"/>
<path d="M8506 7995 c-3 -8 -1 -15 4 -15 6 0 10 7 10 15 0 8 -2 15 -4 15 -2 0
-6 -7 -10 -15z"/>
<path d="M9877 8003 c-4 -3 -7 -11 -7 -17 0 -6 5 -5 12 2 6 6 9 14 7 17 -3 3
-9 2 -12 -2z"/>
<path d="M9835 7980 c-3 -5 -1 -10 4 -10 6 0 11 5 11 10 0 6 -2 10 -4 10 -3 0
-8 -4 -11 -10z"/>
<path d="M8806 7964 c-3 -8 -10 -12 -16 -9 -5 3 -10 2 -10 -3 0 -11 30 -25 38
-17 3 3 0 5 -7 5 -7 0 -9 5 -6 10 4 6 11 8 16 5 5 -3 6 1 3 9 -8 20 -10 20
-18 0z"/>
<path d="M8470 7949 c0 -5 5 -7 10 -4 6 3 10 8 10 11 0 2 -4 4 -10 4 -5 0 -10
-5 -10 -11z"/>
<path d="M8757 7932 c-3 -4 -1 -16 4 -27 4 -11 8 -14 8 -6 1 8 8 11 21 8 26
-7 25 -3 -4 17 -14 9 -27 12 -29 8z"/>
<path d="M8561 7921 c-8 -5 -10 -14 -6 -21 4 -7 2 -16 -6 -21 -8 -5 -9 -9 -4
-9 21 0 37 18 33 38 -2 15 -7 19 -17 13z"/>
<path d="M9517 7907 c-3 -8 0 -20 6 -26 16 -16 27 -13 20 6 -5 12 -3 14 7 8 8
-5 11 -3 8 6 -6 19 -34 23 -41 6z"/>
<path d="M9910 7880 c0 -5 5 -10 10 -10 6 0 10 5 10 10 0 6 -4 10 -10 10 -5 0
-10 -4 -10 -10z"/>
<path d="M9150 7859 c0 -5 5 -7 10 -4 6 3 10 8 10 11 0 2 -4 4 -10 4 -5 0 -10
-5 -10 -11z"/>
<path d="M9566 7854 c-5 -14 -4 -15 9 -4 17 14 19 20 6 20 -5 0 -12 -7 -15
-16z"/>
<path d="M9694 7815 c-3 -14 -11 -25 -16 -25 -6 0 -8 -7 -5 -14 4 -10 1 -13
-9 -9 -7 3 -14 1 -14 -5 0 -12 28 -24 34 -14 2 4 7 22 11 39 3 18 14 37 23 43
16 9 16 9 0 10 -11 0 -20 -10 -24 -25z"/>
<path d="M9845 7820 c-3 -5 -1 -10 4 -10 6 0 11 5 11 10 0 6 -2 10 -4 10 -3 0
-8 -4 -11 -10z"/>
<path d="M8660 7805 c-7 -8 -9 -15 -6 -15 4 0 14 7 22 15 9 8 11 15 6 15 -5 0
-15 -7 -22 -15z"/>
<path d="M9516 7805 c-3 -8 -1 -15 3 -15 5 0 11 7 15 15 3 8 1 15 -3 15 -5 0
-11 -7 -15 -15z"/>
<path d="M9136 7784 c-15 -13 -23 -24 -18 -24 5 0 17 9 26 19 10 11 25 17 37
14 10 -3 19 -3 19 0 0 16 -40 11 -64 -9z"/>
<path d="M2967 7780 c5 -18 69 -83 141 -142 17 -15 32 -31 32 -37 0 -6 7 -11
15 -11 8 0 15 -3 15 -8 0 -9 131 -145 135 -140 11 11 -315 358 -336 358 -4 0
-5 -9 -2 -20z"/>
<path d="M9971 7774 c-12 -14 -20 -28 -18 -31 6 -5 47 37 47 49 0 13 -5 10
-29 -18z"/>
<path d="M3470 7784 c0 -16 30 -75 57 -110 13 -17 23 -36 23 -41 0 -6 7 -16
15 -23 8 -7 12 -17 8 -23 -4 -6 -1 -7 7 -2 10 6 12 4 7 -8 -3 -9 0 -20 7 -24
8 -5 24 -26 37 -47 13 -22 24 -35 26 -29 2 5 -32 72 -77 148 -76 133 -110 181
-110 159z"/>
<path d="M8635 7770 c-3 -5 -1 -10 4 -10 6 0 11 5 11 10 0 6 -2 10 -4 10 -3 0
-8 -4 -11 -10z"/>
<path d="M9132 7748 c-7 -7 -12 -18 -12 -25 0 -7 -5 -13 -11 -13 -5 0 -7 6 -3
13 5 7 0 6 -11 -3 -10 -8 -26 -34 -37 -56 -10 -23 -25 -47 -33 -54 -8 -7 -12
-17 -9 -22 4 -6 9 -6 13 -1 3 5 18 16 33 25 19 12 26 24 24 42 -2 13 1 30 5
38 7 10 9 10 9 1 0 -15 28 12 48 45 13 24 4 30 -16 10z"/>
<path d="M9492 7740 c-7 -11 -8 -20 -2 -20 5 0 14 9 20 20 6 11 7 20 3 20 -5
0 -14 -9 -21 -20z"/>
<path d="M9266 7733 c-6 -14 -5 -15 5 -6 7 7 10 15 7 18 -3 3 -9 -2 -12 -12z"/>
<path d="M8917 7714 c-10 -13 -14 -24 -10 -24 13 0 43 39 35 44 -4 2 -15 -7
-25 -20z"/>
<path d="M9558 7733 c7 -3 16 -2 19 1 4 3 -2 6 -13 5 -11 0 -14 -3 -6 -6z"/>
<path d="M8582 7718 c-7 -7 -12 -16 -12 -21 0 -5 7 -1 16 8 9 9 14 18 12 20
-2 3 -10 -1 -16 -7z"/>
<path d="M9605 7690 c-3 -5 1 -10 10 -10 9 0 13 5 10 10 -3 6 -8 10 -10 10 -2
0 -7 -4 -10 -10z"/>
<path d="M4430 7651 c12 -23 29 -35 37 -27 7 7 -26 46 -39 46 -5 0 -4 -9 2
-19z"/>
<path d="M8982 7650 c-7 -11 -8 -20 -3 -20 9 0 24 30 18 36 -1 2 -8 -6 -15
-16z"/>
<path d="M9580 7650 c0 -5 5 -10 10 -10 6 0 10 5 10 10 0 6 -4 10 -10 10 -5 0
-10 -4 -10 -10z"/>
<path d="M8351 7624 c0 -11 3 -14 6 -6 3 7 2 16 -1 19 -3 4 -6 -2 -5 -13z"/>
<path d="M8928 7579 c-21 -20 -29 -33 -20 -36 22 -8 13 -20 -12 -16 -20 4 -27
-1 -41 -31 -10 -20 -21 -36 -26 -36 -5 0 -6 -6 -3 -14 3 -8 -3 -17 -14 -20
-11 -4 -28 -16 -38 -28 -19 -20 -19 -21 1 -15 11 4 27 2 35 -4 12 -8 11 -9 -6
-5 -14 4 -28 -2 -44 -19 -12 -13 -27 -22 -31 -19 -5 3 -9 0 -9 -6 0 -6 -12
-23 -27 -39 -65 -65 -87 -92 -71 -86 9 4 19 1 23 -5 3 -6 3 -10 -2 -9 -27 5
-33 -2 -27 -28 7 -26 7 -27 -10 -10 -10 9 -20 17 -24 17 -3 0 -1 -5 6 -12 18
-18 15 -28 -9 -28 -17 0 -19 -3 -10 -13 8 -10 7 -17 -2 -27 -9 -10 -9 -11 1
-6 7 4 12 1 12 -8 0 -9 -7 -16 -15 -16 -8 0 -15 9 -15 20 0 11 -4 20 -9 20
-14 0 -63 -69 -56 -80 4 -6 1 -9 -7 -8 -9 2 -12 -8 -11 -32 1 -19 -1 -29 -3
-22 -3 6 -9 12 -14 12 -10 0 -25 -40 -21 -55 1 -5 0 -7 -4 -3 -13 13 -73 -63
-67 -84 1 -5 -5 -8 -13 -8 -8 0 -15 -8 -15 -17 0 -10 -21 -40 -45 -66 -25 -27
-45 -52 -45 -58 0 -5 -7 -9 -15 -9 -16 0 -20 -16 -6 -24 5 -3 26 10 47 29 22
19 46 35 54 35 25 0 92 79 87 101 -7 25 8 33 27 14 13 -14 16 -13 25 2 8 13
13 15 19 6 6 -9 10 -8 18 5 9 14 7 17 -15 19 -14 1 -32 -3 -38 -9 -21 -17 -15
6 8 30 11 12 24 20 30 17 5 -4 17 7 27 24 9 17 23 31 30 31 6 0 12 10 11 23 0
12 -3 16 -6 9 -2 -6 -9 -10 -14 -6 -16 10 -10 22 15 26 17 4 23 1 19 -9 -6
-15 5 -17 26 -4 8 5 11 16 6 30 -7 22 10 31 18 9 2 -7 2 -2 0 12 -3 14 -9 27
-14 31 -6 3 -3 11 6 19 8 7 15 19 15 26 0 8 5 14 10 14 12 0 12 -2 1 -34 -7
-17 -6 -27 3 -35 10 -9 12 -6 9 13 -4 19 1 28 26 40 19 10 31 24 31 37 0 13 6
20 18 18 37 -3 43 0 33 19 -11 20 -4 62 10 62 5 0 9 7 9 16 0 18 69 88 78 79
3 -3 -8 -18 -26 -33 -18 -16 -29 -31 -26 -35 11 -11 26 -8 19 3 -3 6 1 7 10 4
12 -5 16 -2 13 12 -2 11 2 18 10 17 6 -2 12 6 12 17 0 13 7 20 20 20 11 0 20
4 20 8 0 5 9 18 21 31 12 12 18 25 15 28 -3 4 -13 -2 -21 -13 -13 -18 -14 -18
-15 -1 0 14 -5 17 -22 12 -22 -6 -22 -5 -3 7 20 12 25 14 45 17 6 0 10 11 10
24 0 26 29 72 59 93 22 16 28 34 11 34 -5 0 -10 -7 -10 -16 0 -8 -5 -12 -10
-9 -6 4 -8 15 -5 26 9 28 -9 23 -47 -12z m-8 -83 c0 -2 -7 -9 -15 -16 -13 -11
-14 -10 -9 4 5 14 24 23 24 12z m-99 -99 c-10 -9 -11 -8 -5 6 3 10 9 15 12 12
3 -3 0 -11 -7 -18z m48 -20 c8 -10 7 -14 -4 -14 -8 0 -15 6 -15 14 0 7 2 13 4
13 2 0 9 -6 15 -13z m-94 -57 c-3 -5 -12 -10 -18 -10 -7 0 -6 4 3 10 19 12 23
12 15 0z m-92 -137 c-17 -25 -21 -27 -41 -14 -10 6 -8 10 8 14 17 4 20 10 15
27 -6 19 -5 20 13 9 18 -12 19 -14 5 -36z m-123 -142 c0 -12 -20 -25 -27 -18
-7 7 6 27 18 27 5 0 9 -4 9 -9z m-46 -68 c7 -17 0 -33 -14 -33 -5 0 -7 7 -3
15 3 9 -2 22 -13 30 -18 13 -18 14 3 9 12 -4 24 -13 27 -21z m-29 -53 c3 -5 1
-10 -4 -10 -6 0 -11 5 -11 10 0 6 2 10 4 10 3 0 8 -4 11 -10z"/>
<path d="M9019 7560 c-13 -10 -19 -19 -13 -20 7 0 22 9 35 20 13 10 19 19 13
20 -7 0 -22 -9 -35 -20z"/>
<path d="M8250 7539 c0 -5 5 -7 10 -4 6 3 10 8 10 11 0 2 -4 4 -10 4 -5 0 -10
-5 -10 -11z"/>
<path d="M8675 7530 c-26 -29 -15 -32 15 -4 13 13 20 24 14 24 -6 0 -19 -9
-29 -20z"/>
<path d="M1896 7532 c-3 -5 1 -9 9 -9 8 0 12 4 9 9 -3 4 -7 8 -9 8 -2 0 -6 -4
-9 -8z"/>
<path d="M8980 7533 c6 -3 -1 -15 -16 -28 -14 -12 -22 -25 -16 -29 12 -7 48
25 47 43 0 8 -6 15 -13 17 -7 1 -8 0 -2 -3z"/>
<path d="M8435 7520 c-3 -5 -1 -10 4 -10 6 0 11 5 11 10 0 6 -2 10 -4 10 -3 0
-8 -4 -11 -10z"/>
<path d="M9970 7509 c0 -5 5 -7 10 -4 6 3 10 8 10 11 0 2 -4 4 -10 4 -5 0 -10
-5 -10 -11z"/>
<path d="M8260 7500 c-8 -26 -7 -41 2 -32 6 6 8 16 5 24 -3 7 -6 11 -7 8z"/>
<path d="M9981 7454 c-10 -11 -23 -14 -52 -9 -25 4 -39 3 -39 -4 0 -6 -6 -11
-13 -11 -7 0 -28 -13 -47 -30 -26 -22 -30 -29 -17 -30 9 0 17 5 17 10 0 6 8
10 18 10 13 0 14 -2 3 -9 -11 -7 -11 -9 0 -13 10 -3 10 -6 1 -12 -7 -4 -12 -3
-12 3 0 14 -30 2 -59 -23 -23 -20 -24 -20 -17 -1 7 18 5 18 -17 -3 -13 -12
-29 -22 -36 -22 -7 0 -9 -4 -6 -10 3 -5 -1 -10 -9 -10 -9 0 -16 7 -16 15 0 8
5 15 10 15 6 0 10 6 10 13 -1 6 -11 0 -23 -14 -12 -15 -28 -28 -35 -30 -7 -3
1 -9 17 -16 25 -9 33 -8 51 9 12 11 24 17 28 13 4 -4 -6 -17 -23 -30 -21 -18
-31 -21 -37 -12 -5 8 -8 6 -8 -7 0 -11 -3 -16 -7 -13 -3 4 -15 0 -25 -10 -11
-9 -18 -11 -18 -5 0 7 5 12 12 12 6 0 8 3 5 7 -4 3 -15 -1 -26 -11 -10 -9 -23
-16 -28 -14 -13 4 -73 -60 -73 -78 0 -8 -5 -12 -10 -9 -6 4 -10 12 -9 18 4 34
-1 39 -33 33 l-31 -6 23 20 c13 11 18 20 11 20 -7 0 -9 5 -6 10 4 6 10 8 15 5
9 -6 23 25 15 33 -3 3 -15 -4 -28 -15 -12 -12 -31 -23 -42 -26 -17 -4 -16 -5
5 -6 l25 -1 -30 -20 c-41 -27 -54 -25 -50 8 2 15 4 30 4 35 1 4 6 6 12 5 6 -2
14 3 16 10 3 6 0 12 -7 12 -6 0 -8 6 -4 13 4 7 3 9 -2 4 -5 -5 -9 -13 -9 -18
0 -13 -76 -49 -89 -42 -6 3 -8 3 -4 -2 4 -4 -1 -19 -12 -33 -11 -13 -18 -28
-15 -32 3 -5 -11 -18 -30 -30 -19 -12 -32 -26 -29 -32 4 -7 9 -6 14 1 4 7 23
11 43 9 20 -1 33 -6 31 -10 -3 -4 -9 -8 -14 -8 -5 0 -20 -11 -34 -25 -26 -25
-66 -34 -66 -14 0 6 7 9 15 5 8 -3 15 -1 15 4 0 5 6 7 14 4 8 -3 16 4 19 17 4
16 3 19 -6 10 -6 -6 -23 -11 -38 -11 -19 0 -33 -10 -49 -34 -13 -18 -36 -42
-52 -52 -19 -12 -33 -35 -42 -63 -7 -25 -18 -47 -25 -49 -10 -3 -10 0 -2 16
14 26 14 45 1 37 -5 -3 -10 1 -10 9 0 9 -4 16 -10 16 -5 0 -10 -4 -10 -9 0 -6
5 -13 10 -16 15 -10 12 -17 -25 -59 -31 -34 -37 -37 -52 -25 -9 8 -14 9 -10 3
4 -6 -4 -20 -18 -30 -13 -10 -22 -21 -19 -25 2 -4 -5 -10 -16 -14 -11 -3 -20
-11 -20 -17 0 -5 -12 -19 -26 -30 -18 -15 -24 -28 -21 -44 2 -14 -2 -25 -11
-29 -11 -4 -13 0 -9 15 3 11 1 18 -4 14 -5 -3 -9 -12 -9 -20 0 -11 -6 -13 -19
-9 -15 5 -19 1 -18 -14 0 -11 5 -17 9 -15 11 7 10 -4 -3 -28 -9 -17 -13 -18
-20 -7 -5 8 -6 22 -3 33 4 12 2 16 -5 12 -6 -4 -11 0 -11 9 0 9 -4 14 -9 11
-5 -4 -11 -1 -13 6 -3 8 -7 6 -11 -4 -4 -11 0 -19 13 -23 11 -3 18 -14 17 -25
-2 -24 -23 -34 -31 -14 -3 9 -1 12 4 9 6 -3 10 1 10 9 0 21 -19 20 -37 -1 -13
-17 -14 -16 -8 5 4 13 2 22 -4 22 -6 0 -11 -5 -11 -11 0 -5 -4 -8 -9 -5 -14 9
-72 -25 -81 -48 -5 -13 -9 -15 -10 -6 0 11 -5 10 -18 -6 -19 -24 -52 -38 -52
-23 0 6 -5 7 -10 4 -16 -10 -1 -25 26 -25 15 0 24 -6 24 -16 0 -9 -5 -12 -12
-8 -18 11 -56 11 -77 -1 -28 -15 -81 -63 -81 -72 0 -4 -11 -20 -25 -35 -25
-28 -33 -44 -15 -33 6 3 10 -1 10 -11 0 -11 -6 -15 -19 -11 -13 3 -18 0 -15
-8 3 -6 -15 -27 -40 -46 -25 -19 -46 -39 -46 -45 0 -7 -7 -15 -16 -18 -9 -4
-14 -9 -10 -13 3 -3 -9 -17 -28 -29 -20 -14 -37 -35 -41 -51 -3 -16 -17 -36
-31 -46 -21 -16 -25 -16 -30 -3 -5 14 -10 13 -35 -5 -16 -11 -27 -25 -23 -30
3 -5 2 -9 -3 -8 -18 4 -45 -15 -59 -43 -10 -18 -21 -28 -30 -24 -7 3 -13 2
-13 -2 1 -4 1 -17 0 -30 -1 -19 -5 -22 -21 -17 -23 7 -26 -1 -6 -20 7 -8 17
-11 21 -7 5 4 5 1 1 -5 -10 -18 -33 -16 -45 5 -6 10 -11 12 -11 4 0 -7 -6 -10
-12 -7 -7 4 -2 -3 11 -15 20 -17 22 -23 11 -30 -8 -5 -11 -12 -8 -16 4 -4 -5
-18 -21 -33 -15 -14 -33 -35 -40 -46 -12 -20 -11 -8 5 29 6 16 -25 31 -38 18
-18 -18 12 -61 67 -99 31 -21 82 -57 113 -80 35 -26 61 -38 67 -32 15 14 29
11 16 -5 -9 -11 12 -30 110 -100 67 -48 124 -85 127 -82 3 3 11 -3 19 -14 8
-11 34 -34 59 -51 l46 -31 46 17 c26 10 61 30 77 45 17 15 50 37 75 48 51 24
110 57 155 87 17 11 38 25 47 30 43 26 211 133 273 175 39 26 90 57 115 71 25
13 59 36 75 51 17 16 33 28 38 28 7 0 218 141 247 165 8 7 31 22 50 33 19 10
85 57 147 103 62 46 135 98 162 114 28 17 51 33 51 38 0 4 6 7 13 7 6 1 28 14
47 30 19 17 40 30 46 30 21 0 24 29 24 275 l0 243 -22 7 c-22 7 -22 7 -3 13
13 5 21 17 22 35 2 31 -13 36 -22 7 -3 -11 -19 -27 -36 -37 -16 -9 -29 -21
-29 -26 0 -5 -12 -7 -27 -4 -20 4 -32 -2 -50 -24 -24 -28 -52 -41 -37 -17 4 7
3 8 -4 4 -7 -4 -12 -11 -12 -16 0 -5 -13 -22 -28 -38 -22 -23 -33 -27 -50 -21
-12 5 -29 6 -37 3 -18 -7 -20 17 -3 34 22 22 2 22 -21 1 -16 -16 -25 -18 -30
-10 -5 8 -27 -8 -65 -46 -46 -46 -59 -55 -66 -43 -5 8 -9 20 -9 25 0 6 3 4 6
-2 2 -7 9 -13 15 -13 5 0 8 6 5 13 -4 12 29 47 45 47 4 0 17 9 28 20 11 11 29
20 40 20 11 0 20 4 20 9 0 5 9 13 21 16 15 5 19 13 15 28 -5 22 9 47 26 47 6
0 8 -9 5 -20 -10 -40 9 -19 21 23 7 23 16 49 19 57 5 13 4 13 -9 2 -10 -8 -19
-9 -22 -4 -6 11 9 25 37 35 13 5 17 1 18 -16 0 -12 3 -16 6 -9 2 6 8 10 12 8
4 -3 7 4 7 16 -1 12 6 23 14 26 13 5 13 3 0 -13 -14 -17 -13 -18 13 -13 29 6
34 -1 15 -20 -9 -9 -7 -12 10 -12 19 0 21 4 16 25 -5 19 -2 25 10 25 9 0 16 4
16 9 0 5 8 8 17 7 10 0 18 4 18 9 2 20 16 55 23 54 4 -1 19 -1 35 0 23 1 27 5
27 31 0 37 -13 38 -52 5 -16 -14 -34 -22 -40 -19 -6 4 2 17 18 31 20 17 25 26
16 30 -10 4 -9 9 4 24 21 24 42 25 23 2 -12 -15 -12 -16 4 -10 10 4 21 7 23 7
11 0 2 29 -11 34 -17 6 -21 36 -5 36 17 0 11 28 -7 39 -16 9 -16 10 5 11 17 0
22 6 22 26 0 14 -4 23 -10 19 -5 -3 -10 -2 -10 3 0 5 -10 12 -22 16 l-23 6 25
13 c17 9 27 10 32 3 4 -6 6 4 6 22 -1 18 -1 32 -2 32 -1 -1 -7 -8 -15 -16z
m-41 -31 c-8 -4 -20 -13 -27 -22 -8 -10 -12 -11 -13 -4 0 7 -7 10 -15 7 -8 -4
-15 -1 -15 4 0 11 18 17 60 19 14 1 18 -1 10 -4z m-4 -58 c-11 -8 -23 -15 -27
-15 -4 0 -9 -9 -11 -20 -3 -21 -3 -21 -15 -1 -16 26 2 46 43 48 28 2 28 2 10
-12z m-66 -41 c0 -10 -28 -34 -39 -34 -16 0 -13 11 7 26 18 14 32 18 32 8z
m70 -29 c0 -8 -8 -15 -17 -14 -11 0 -13 3 -5 6 6 2 10 9 6 14 -3 5 0 9 5 9 6
0 11 -7 11 -15z m-123 -29 c-15 -12 -17 -18 -7 -36 11 -21 11 -21 -22 -4 -31
16 -31 17 -11 25 11 4 24 12 28 18 3 6 12 11 18 11 7 0 4 -7 -6 -14z m63 -20
c0 -2 -7 -7 -16 -10 -8 -3 -12 -2 -9 4 6 10 25 14 25 6z m9 -37 c-19 -11 -24
-3 -8 14 8 9 16 11 18 5 2 -6 -3 -14 -10 -19z m-539 -3 c0 -3 -4 -8 -10 -11
-5 -3 -10 -1 -10 4 0 6 5 11 10 11 6 0 10 -2 10 -4z m491 -23 c-8 -15 -10 -15
-11 -2 0 17 10 32 18 25 2 -3 -1 -13 -7 -23z m-244 -9 c-3 -3 -12 -4 -19 -1
-8 3 -5 6 6 6 11 1 17 -2 13 -5z m148 -31 c-24 -23 -36 -14 -19 13 12 18 19
22 25 13 4 -7 1 -18 -6 -26z m142 12 c-4 -8 -17 -15 -31 -15 -14 0 -28 -5 -32
-11 -4 -8 -9 -8 -17 0 -16 16 4 32 42 33 17 1 31 6 31 11 0 6 3 8 6 4 4 -3 4
-13 1 -22z m-537 6 c0 -5 9 -7 20 -4 12 3 20 0 20 -7 0 -6 -9 -14 -21 -17 -16
-5 -18 -8 -7 -15 9 -6 6 -7 -10 -3 -13 4 -30 1 -40 -6 -9 -8 -6 -1 8 14 21 24
22 27 5 21 -11 -5 -26 -14 -34 -21 -7 -8 -16 -11 -20 -8 -7 8 49 55 67 55 6 0
12 -4 12 -9z m81 -24 c-10 -9 -11 -8 -5 6 3 10 9 15 12 12 3 -3 0 -11 -7 -18z
m129 13 c0 -5 -4 -10 -10 -10 -5 0 -10 5 -10 10 0 6 5 10 10 10 6 0 10 -4 10
-10z m-87 -27 c-7 -2 -19 -2 -25 0 -7 3 -2 5 12 5 14 0 19 -2 13 -5z m82 -32
c-3 -6 -11 -11 -16 -11 -5 0 -4 6 3 14 14 16 24 13 13 -3z m305 -11 c0 -5 -5
-10 -11 -10 -5 0 -7 5 -4 10 3 6 8 10 11 10 2 0 4 -4 4 -10z m-178 -19 c-12
-10 -22 -24 -22 -32 0 -9 -3 -10 -11 -2 -19 19 -1 53 28 53 l26 0 -21 -19z
m-182 5 c0 -3 -4 -8 -10 -11 -5 -3 -10 -1 -10 4 0 6 5 11 10 11 6 0 10 -2 10
-4z m-90 -26 c0 -5 -5 -10 -11 -10 -5 0 -7 5 -4 10 3 6 8 10 11 10 2 0 4 -4 4
-10z m-250 -25 c10 -12 10 -15 -4 -15 -9 0 -16 7 -16 15 0 8 2 15 4 15 2 0 9
-7 16 -15z m430 -5 c0 -5 -4 -10 -10 -10 -5 0 -10 5 -10 10 0 6 5 10 10 10 6
0 10 -4 10 -10z m64 -40 c-7 -8 -25 -28 -38 -43 -21 -24 -28 -27 -43 -17 -15
10 -15 11 -1 6 11 -3 19 2 23 15 4 10 11 17 16 14 5 -4 9 0 9 8 0 8 7 17 15
21 9 3 12 12 8 23 -6 15 -5 16 9 3 14 -13 14 -17 2 -30z m-314 10 c0 -5 -10
-15 -22 -21 -23 -12 -23 -12 -4 10 21 23 26 26 26 11z m-226 -30 c-18 -35 -28
-40 -18 -7 5 18 21 36 31 37 1 0 -5 -13 -13 -30z m326 20 c0 -5 -7 -10 -15
-10 -8 0 -15 5 -15 10 0 6 7 10 15 10 8 0 15 -4 15 -10z m65 -50 c3 -5 -3 -10
-15 -10 -12 0 -18 5 -15 10 3 6 10 10 15 10 5 0 12 -4 15 -10z m140 -10 c-3
-5 -10 -10 -16 -10 -5 0 -9 5 -9 10 0 6 7 10 16 10 8 0 12 -4 9 -10z m-248
-50 c3 -10 2 -11 -4 -4 -4 6 -15 14 -23 17 -11 5 -9 6 4 4 11 -1 21 -9 23 -17z
m158 -4 c-15 -11 -17 -17 -7 -28 10 -12 7 -15 -18 -15 -52 0 -46 34 11 55 31
12 38 6 14 -12z m328 -9 c3 -8 -1 -14 -9 -14 -15 0 -18 9 -7 20 9 9 10 9 16
-6z m-943 -48 c0 -5 -4 -9 -10 -9 -5 0 -10 7 -10 16 0 8 5 12 10 9 6 -3 10
-10 10 -16z m-34 -27 c-3 -5 -16 -12 -28 -15 -22 -6 -22 -6 2 13 25 19 37 20
26 2z m746 -22 c-1 -6 3 -10 10 -7 7 2 12 9 11 15 -1 5 7 8 17 5 25 -7 26 -21
3 -30 -10 -4 -24 -13 -31 -20 -11 -11 -10 -13 5 -13 17 -1 17 -1 -1 -15 -10
-8 -23 -12 -27 -9 -5 3 -9 -1 -9 -8 0 -7 -23 -35 -50 -63 -28 -27 -50 -57 -50
-65 -1 -8 -12 -28 -25 -45 l-25 -30 -25 29 c-24 28 -26 29 -45 11 -11 -10 -23
-15 -27 -11 -4 4 -1 11 7 16 11 7 11 11 1 24 -9 11 -10 16 -2 16 6 0 11 5 11
11 0 5 -4 7 -10 4 -5 -3 -10 -1 -10 4 0 18 5 26 14 23 4 -1 14 3 22 9 8 7 18
9 21 5 4 -4 1 -11 -6 -15 -8 -5 -15 -22 -16 -39 -2 -24 1 -29 16 -25 10 3 28
20 41 39 26 39 37 43 35 14 -1 -11 -5 -20 -9 -20 -4 0 -8 -7 -8 -15 0 -14 -12
-20 -33 -16 -4 1 -3 -8 3 -19 11 -21 29 -27 31 -10 1 6 2 16 3 23 1 6 6 11 11
10 6 -1 11 19 13 44 2 32 0 43 -9 37 -7 -4 -10 -2 -7 7 3 8 11 13 17 12 6 -2
11 3 11 11 0 8 9 18 20 21 13 4 20 15 20 30 0 14 13 34 31 50 31 26 57 29 51
5z m-277 -20 c-3 -5 -13 -10 -21 -10 -8 0 -12 5 -9 10 3 6 13 10 21 10 8 0 12
-4 9 -10z m-135 -19 c0 -5 12 -14 28 -19 18 -7 21 -11 9 -11 -10 -1 -27 4 -38
9 -20 11 -26 30 -9 30 6 0 10 -4 10 -9z m180 -1 c0 -5 -5 -10 -11 -10 -5 0 -7
5 -4 10 3 6 8 10 11 10 2 0 4 -4 4 -10z m8 -49 c10 -6 7 -10 -12 -15 -14 -3
-26 -13 -26 -21 0 -8 -7 -15 -15 -15 -19 0 -19 10 1 38 16 23 31 27 52 13z
m-185 -24 c3 -7 3 -25 0 -40 -3 -15 -1 -27 5 -27 6 0 8 -9 5 -20 -9 -35 -19
-21 -21 32 -1 29 -8 55 -15 60 -9 6 -7 8 4 8 9 0 19 -6 22 -13z m-473 -7 c0
-5 -5 -10 -11 -10 -5 0 -7 5 -4 10 3 6 8 10 11 10 2 0 4 -4 4 -10z m28 -34
c-7 -8 -15 -12 -17 -11 -5 6 10 25 20 25 5 0 4 -6 -3 -14z m222 10 c0 -3 -4
-8 -10 -11 -5 -3 -10 -1 -10 4 0 6 5 11 10 11 6 0 10 -2 10 -4z m70 -24 c0
-13 -39 -32 -45 -22 -4 6 4 14 17 19 30 12 28 12 28 3z m253 -27 c-17 -23 -33
-32 -33 -19 0 16 23 44 36 44 13 0 12 -4 -3 -25z m-793 11 c0 -3 -4 -8 -10
-11 -5 -3 -10 -1 -10 4 0 6 5 11 10 11 6 0 10 -2 10 -4z m400 -6 c0 -5 -4 -10
-10 -10 -5 0 -10 5 -10 10 0 6 5 10 10 10 6 0 10 -4 10 -10z m270 -15 c0 -8
-4 -15 -10 -15 -5 0 -10 7 -10 15 0 8 5 15 10 15 6 0 10 -7 10 -15z m50 -35
c0 -5 -7 -10 -15 -10 -8 0 -15 5 -15 10 0 6 7 10 15 10 8 0 15 -4 15 -10z
m-690 -10 c0 -5 -5 -10 -11 -10 -5 0 -7 5 -4 10 3 6 8 10 11 10 2 0 4 -4 4
-10z m355 -10 c3 -5 1 -10 -4 -10 -6 0 -11 5 -11 10 0 6 2 10 4 10 3 0 8 -4
11 -10z m215 0 c0 -5 -7 -7 -15 -4 -8 4 -15 8 -15 10 0 2 7 4 15 4 8 0 15 -4
15 -10z m80 -5 c0 -10 -9 -15 -27 -14 -17 1 -21 3 -10 6 9 2 17 9 17 14 0 5 5
9 10 9 6 0 10 -7 10 -15z m79 -16 c-20 -13 -29 -11 -29 5 0 16 33 27 39 13 2
-5 -3 -13 -10 -18z m39 4 c-10 -2 -15 -10 -11 -19 5 -14 -8 -19 -20 -7 -10 10
13 33 32 32 14 -1 14 -2 -1 -6z m-503 -13 c3 -5 -1 -10 -10 -10 -9 0 -13 5
-10 10 3 6 8 10 10 10 2 0 7 -4 10 -10z m285 0 c0 -5 -7 -10 -16 -10 -8 0 -12
5 -9 10 3 6 10 10 16 10 5 0 9 -4 9 -10z m-738 -17 c-6 -2 -9 -10 -6 -15 4 -7
2 -8 -5 -4 -13 9 -5 26 12 25 9 0 8 -2 -1 -6z m883 -3 c-3 -5 -12 -10 -18 -10
-7 0 -6 4 3 10 19 12 23 12 15 0z m-65 -4 c0 -3 -4 -8 -10 -11 -5 -3 -10 -1
-10 4 0 6 5 11 10 11 6 0 10 -2 10 -4z m-69 -19 c-6 -8 -8 -17 -4 -20 3 -4 12
-2 20 4 8 8 13 8 13 1 0 -6 -6 -13 -12 -16 -10 -5 -10 -7 0 -12 20 -9 14 -23
-8 -17 -12 3 -20 0 -20 -7 0 -7 -7 -10 -15 -6 -8 3 -15 1 -15 -4 0 -5 -7 -7
-15 -3 -9 3 -22 -2 -30 -13 -7 -11 -17 -15 -22 -10 -4 5 -2 11 5 13 6 3 12 9
12 15 0 13 -41 -1 -66 -23 -24 -22 -44 -25 -44 -5 0 9 8 13 23 10 12 -2 16 -2
9 2 -15 7 -6 24 14 24 8 0 25 12 37 26 22 26 23 26 24 4 1 -12 4 -24 6 -26 7
-7 77 26 77 37 0 5 -4 7 -10 4 -5 -3 -10 -2 -10 4 0 5 8 15 18 20 23 14 26 13
13 -2z m97 1 c-2 -6 -10 -14 -16 -16 -7 -2 -10 2 -6 12 7 18 28 22 22 4z
m-508 -7 c0 -6 -4 -13 -10 -16 -5 -3 -10 1 -10 9 0 9 5 16 10 16 6 0 10 -4 10
-9z m-40 -15 c0 -3 -4 -8 -10 -11 -5 -3 -10 -1 -10 4 0 6 5 11 10 11 6 0 10
-2 10 -4z m714 -11 c-4 -8 -10 -15 -15 -15 -4 0 -6 7 -3 15 4 8 10 15 15 15 4
0 6 -7 3 -15z m-600 -20 c3 -8 2 -15 -3 -15 -5 0 -14 7 -21 15 -10 12 -10 15
3 15 8 0 17 -7 21 -15z m126 -25 c0 -5 -2 -10 -4 -10 -3 0 -8 5 -11 10 -3 6
-1 10 4 10 6 0 11 -4 11 -10z m-465 -20 c3 -5 1 -10 -4 -10 -6 0 -11 5 -11 10
0 6 2 10 4 10 3 0 8 -4 11 -10z m695 6 c0 -3 -4 -8 -10 -11 -5 -3 -10 -1 -10
4 0 6 5 11 10 11 6 0 10 -2 10 -4z m-340 -21 c-7 -8 -16 -15 -21 -15 -5 0 -9
7 -9 15 0 9 9 15 21 15 18 0 19 -2 9 -15z m103 -16 c-3 -11 -12 -23 -19 -26
-21 -8 -17 -29 6 -39 19 -8 19 -11 6 -29 -15 -20 -15 -20 -16 3 0 23 -14 30
-25 12 -3 -5 -2 -10 3 -10 6 0 10 -16 9 -35 -1 -27 -5 -35 -19 -35 -10 0 -18
4 -18 9 0 5 -10 8 -23 7 -13 0 -24 -7 -24 -14 0 -7 6 -11 13 -8 8 3 16 1 19
-4 4 -6 0 -10 -7 -10 -8 0 -20 -15 -26 -34 -7 -19 -19 -39 -26 -45 -11 -9 -12
-6 -8 16 3 16 10 31 17 35 6 4 10 21 9 39 -2 23 5 38 24 55 16 14 21 23 12 22
-28 -5 -15 27 17 41 18 8 35 23 39 33 3 10 10 18 15 18 5 0 9 7 9 16 0 8 4 13
9 10 5 -3 7 -15 4 -27z m177 22 c0 -5 -7 -12 -16 -15 -24 -9 -28 -7 -14 9 14
17 30 20 30 6z m-87 -18 c-5 -13 -2 -15 11 -10 23 9 16 -13 -8 -27 -14 -8 -20
-8 -23 1 -3 10 -7 10 -17 0 -11 -10 -11 -14 2 -23 8 -6 12 -16 8 -22 -10 -17
-26 -15 -26 2 0 8 -8 16 -17 18 -13 2 -9 11 19 41 37 39 62 49 51 20z m-253
-13 c0 -5 -2 -10 -4 -10 -3 0 -8 5 -11 10 -3 6 -1 10 4 10 6 0 11 -4 11 -10z
m20 -69 c0 -19 -23 -35 -34 -24 -14 15 -5 43 14 43 13 0 20 -7 20 -19z m-79
-54 c-13 -13 -15 1 -4 30 7 17 8 17 11 -1 2 -10 -1 -23 -7 -29z m-596 -25 c-8
-8 -25 10 -19 20 4 6 9 5 15 -3 4 -7 6 -15 4 -17z m575 -14 c0 -6 -3 -8 -7 -5
-3 4 -13 1 -22 -6 -14 -11 -14 -10 -2 6 15 20 31 22 31 5z m370 2 c0 -5 -4
-10 -10 -10 -5 0 -10 5 -10 10 0 6 5 10 10 10 6 0 10 -4 10 -10z m-282 -32
c-6 -18 -48 -30 -48 -13 0 12 14 20 43 24 5 0 7 -4 5 -11z m76 -10 c-9 -31
-36 -70 -42 -63 -3 3 -1 15 5 28 6 12 14 30 17 40 3 9 10 17 16 17 7 0 9 -9 4
-22z m-834 -32 c0 -3 -4 -8 -10 -11 -5 -3 -10 -1 -10 4 0 6 5 11 10 11 6 0 10
-2 10 -4z m620 0 c0 -3 -4 -8 -10 -11 -5 -3 -10 -1 -10 4 0 6 5 11 10 11 6 0
10 -2 10 -4z m-30 -36 c0 -5 -2 -10 -4 -10 -3 0 -8 5 -11 10 -3 6 -1 10 4 10
6 0 11 -4 11 -10z m123 -24 c4 -10 1 -13 -8 -9 -8 3 -12 9 -9 14 7 12 11 11
17 -5z m-493 -30 c0 -3 -4 -8 -10 -11 -5 -3 -10 -1 -10 4 0 6 5 11 10 11 6 0
10 -2 10 -4z m317 -18 c-3 -8 -6 -5 -6 6 -1 11 2 17 5 13 3 -3 4 -12 1 -19z
m-647 2 c0 -5 -5 -10 -11 -10 -5 0 -7 5 -4 10 3 6 8 10 11 10 2 0 4 -4 4 -10z
m290 -10 c-6 -11 -15 -20 -20 -20 -5 0 -12 -9 -15 -20 -6 -20 -25 -28 -25 -11
0 9 60 71 68 71 1 0 -2 -9 -8 -20z m338 -17 c-2 -10 -11 -18 -19 -18 -9 0 -25
-7 -35 -14 -11 -8 -5 0 11 17 34 35 48 40 43 15z m-608 -18 c-14 -17 -30 -20
-30 -6 0 5 8 12 18 14 9 3 19 5 21 6 2 0 -2 -6 -9 -14z m680 -26 c0 -6 -4 -7
-10 -4 -5 3 -10 11 -10 16 0 6 5 7 10 4 6 -3 10 -11 10 -16z m-402 -9 c-7 -10
-14 -17 -17 -15 -4 4 18 35 25 35 2 0 -1 -9 -8 -20z m282 -10 c0 -5 -4 -10 -9
-10 -6 0 -13 5 -16 10 -3 6 1 10 9 10 9 0 16 -4 16 -10z m-600 -20 c0 -5 -4
-10 -10 -10 -5 0 -10 5 -10 10 0 6 5 10 10 10 6 0 10 -4 10 -10z m270 -60 c0
-5 -4 -10 -10 -10 -5 0 -10 5 -10 10 0 6 5 10 10 10 6 0 10 -4 10 -10z m315
-10 c3 -5 1 -10 -4 -10 -6 0 -11 5 -11 10 0 6 2 10 4 10 3 0 8 -4 11 -10z
m-50 -70 c3 -5 1 -10 -4 -10 -6 0 -11 5 -11 10 0 6 2 10 4 10 3 0 8 -4 11 -10z
m-135 -10 c0 -5 -4 -10 -10 -10 -5 0 -10 5 -10 10 0 6 5 10 10 10 6 0 10 -4
10 -10z m40 0 c0 -5 -4 -10 -10 -10 -5 0 -10 5 -10 10 0 6 5 10 10 10 6 0 10
-4 10 -10z m-130 -20 c0 -5 -4 -10 -10 -10 -5 0 -10 5 -10 10 0 6 5 10 10 10
6 0 10 -4 10 -10z m100 -16 c0 -8 -19 -13 -24 -6 -3 5 1 9 9 9 8 0 15 -2 15
-3z m-306 -13 c3 -5 -1 -14 -8 -20 -12 -10 -13 -8 -9 8 6 23 9 25 17 12z m188
-53 c-10 -10 -15 -10 -21 1 -5 7 -14 10 -20 7 -6 -4 -11 -3 -11 3 0 12 42 20
55 9 5 -5 4 -13 -3 -20z m110 -60 c-8 -8 -9 -4 -5 13 4 13 8 18 11 10 2 -7 -1
-18 -6 -23z"/>
<path d="M9591 6700 c-5 -16 -8 -30 -6 -30 2 0 10 14 19 30 8 17 11 30 6 30
-4 0 -13 -13 -19 -30z"/>
<path d="M8855 6180 c-3 -5 -1 -10 4 -10 6 0 11 5 11 10 0 6 -2 10 -4 10 -3 0
-8 -4 -11 -10z"/>
<path d="M4460 7454 c0 -16 23 -44 36 -44 12 0 12 4 -2 25 -15 23 -34 34 -34
19z"/>
<path d="M8595 7450 c-3 -5 -1 -10 4 -10 6 0 11 5 11 10 0 6 -2 10 -4 10 -3 0
-8 -4 -11 -10z"/>
<path d="M9355 7429 c-4 -6 -5 -12 -2 -15 2 -3 7 2 10 11 7 17 1 20 -8 4z"/>
<path d="M9795 7430 c-3 -5 -2 -10 4 -10 5 0 13 5 16 10 3 6 2 10 -4 10 -5 0
-13 -4 -16 -10z"/>
<path d="M3470 7423 c1 -20 220 -107 220 -87 0 2 -40 24 -90 49 -83 42 -130
55 -130 38z"/>
<path d="M9755 7420 c-3 -5 -2 -10 4 -10 5 0 13 5 16 10 3 6 2 10 -4 10 -5 0
-13 -4 -16 -10z"/>
<path d="M8584 7403 c4 -10 5 -15 1 -12 -6 7 -85 -64 -85 -76 0 -8 20 8 58 48
9 9 22 17 29 17 7 0 13 9 13 20 0 11 -5 20 -11 20 -6 0 -8 -7 -5 -17z"/>
<path d="M9548 7394 c-16 -8 -28 -17 -28 -20 0 -3 5 -2 10 1 20 13 9 -14 -12
-29 -21 -15 -21 -16 -3 -16 15 0 17 -2 6 -9 -11 -7 -9 -11 9 -21 14 -7 25 -8
29 -3 3 5 15 15 26 22 l20 12 -20 -5 c-11 -3 -26 -1 -34 3 -12 8 -9 15 17 39
18 17 32 33 32 36 0 10 -24 6 -52 -10z m32 -4 c0 -5 -8 -10 -17 -10 -15 0 -16
2 -3 10 19 12 20 12 20 0z"/>
<path d="M9179 7384 c-12 -14 -11 -16 5 -13 11 2 21 10 24 17 5 17 -13 15 -29
-4z"/>
<path d="M8735 7360 c-3 -5 -2 -10 4 -10 5 0 13 5 16 10 3 6 2 10 -4 10 -5 0
-13 -4 -16 -10z"/>
<path d="M9758 7363 c6 -2 18 -2 25 0 6 3 1 5 -13 5 -14 0 -19 -2 -12 -5z"/>
<path d="M9620 7330 c0 -5 5 -10 10 -10 6 0 10 5 10 10 0 6 -4 10 -10 10 -5 0
-10 -4 -10 -10z"/>
<path d="M9448 7323 c-16 -2 -28 -9 -28 -14 0 -6 4 -8 9 -5 5 4 7 -3 4 -14 -3
-11 -8 -18 -12 -16 -4 3 -8 -4 -8 -15 -1 -10 2 -19 6 -19 14 0 31 24 31 45 0
13 10 27 23 33 23 11 20 12 -25 5z"/>
<path d="M9486 7294 c-8 -21 -1 -28 19 -20 9 3 15 11 13 18 -7 19 -25 20 -32
2z"/>
<path d="M8469 7283 c-13 -16 -12 -17 4 -4 9 7 17 15 17 17 0 8 -8 3 -21 -13z"/>
<path d="M9584 7275 c-18 -14 -18 -14 4 -8 12 3 22 9 22 14 0 12 -3 11 -26 -6z"/>
<path d="M4501 7226 c7 -14 19 -26 27 -26 13 0 13 3 0 22 -22 33 -41 36 -27 4z"/>
<path d="M8152 7245 c4 -4 3 -14 -3 -22 -7 -8 -8 -13 -1 -13 15 0 23 28 9 36
-7 4 -9 4 -5 -1z"/>
<path d="M9510 7241 c0 -6 5 -13 11 -17 8 -4 7 -9 -2 -15 -10 -6 -8 -9 8 -9
20 0 21 2 11 25 -11 25 -28 34 -28 16z"/>
<path d="M8777 7217 c-10 -10 -16 -21 -13 -25 8 -8 39 24 35 35 -2 5 -12 0
-22 -10z"/>
<path d="M8350 7209 c-16 -30 -8 -31 13 -3 10 13 13 24 8 24 -6 0 -15 -9 -21
-21z"/>
<path d="M3731 7178 c-1 -21 4 -38 9 -38 11 0 11 14 0 50 -7 22 -8 21 -9 -12z"/>
<path d="M8320 7170 c0 -5 5 -10 11 -10 5 0 7 5 4 10 -3 6 -8 10 -11 10 -2 0
-4 -4 -4 -10z"/>
<path d="M8429 7143 c-13 -16 -12 -17 4 -4 16 13 21 21 13 21 -2 0 -10 -8 -17
-17z"/>
<path d="M8845 7150 c-3 -5 -1 -10 4 -10 6 0 11 5 11 10 0 6 -2 10 -4 10 -3 0
-8 -4 -11 -10z"/>
<path d="M8886 7151 c-4 -7 -5 -15 -2 -18 9 -9 19 4 14 18 -4 11 -6 11 -12 0z"/>
<path d="M9200 7140 c0 -13 11 -13 30 0 12 8 11 10 -7 10 -13 0 -23 -4 -23
-10z"/>
<path d="M3660 7136 c0 -2 8 -10 18 -17 15 -13 16 -12 3 4 -13 16 -21 21 -21
13z"/>
<path d="M8339 7104 c-23 -25 -27 -33 -13 -26 18 9 61 62 51 62 -2 0 -19 -16
-38 -36z"/>
<path d="M8370 7088 c-11 -12 -20 -27 -20 -32 1 -6 9 -1 20 12 11 13 24 21 30
17 6 -3 7 0 4 9 -8 20 -9 20 -34 -6z"/>
<path d="M8880 7099 c0 -5 5 -7 10 -4 6 3 10 8 10 11 0 2 -4 4 -10 4 -5 0 -10
-5 -10 -11z"/>
<path d="M8837 7071 c-31 -33 -34 -43 -12 -34 13 4 52 63 43 63 -2 0 -15 -13
-31 -29z"/>
<path d="M9943 7079 c-9 -9 -8 -15 3 -26 19 -19 54 -7 54 19 0 16 -3 18 -13 9
-9 -7 -17 -7 -23 -1 -7 7 -14 6 -21 -1z"/>
<path d="M3540 7072 c0 -5 10 -14 23 -20 21 -10 21 -11 1 -11 -11 -1 -43 6
-70 14 -27 8 -58 14 -69 14 -33 -1 53 -36 156 -64 85 -22 109 -35 250 -130 86
-58 162 -105 168 -105 6 0 11 -4 11 -10 0 -5 6 -10 14 -10 8 0 16 -6 19 -12 2
-7 8 -9 13 -5 5 5 -2 17 -16 28 -14 10 -29 23 -35 27 -35 27 -202 145 -212
149 -7 3 -11 9 -8 13 3 4 28 -1 57 -12 35 -13 48 -15 40 -6 -16 19 -109 51
-123 42 -7 -4 -9 -3 -5 4 4 6 -7 13 -26 17 -18 4 -63 24 -100 46 -66 39 -88
46 -88 31z"/>
<path d="M8386 7061 c-4 -6 -22 -18 -41 -27 -19 -9 -35 -23 -35 -30 0 -19 -17
-18 -28 2 -7 13 -10 8 -15 -22 -8 -49 9 -74 30 -44 8 11 22 20 31 20 13 0 14
2 4 8 -7 5 -10 16 -6 25 3 9 10 14 15 11 5 -3 6 2 3 10 -3 9 -1 16 5 16 6 0
11 -6 11 -12 0 -7 6 -4 12 7 6 11 16 23 22 27 6 4 8 10 4 13 -3 4 -9 2 -12 -4z"/>
<path d="M9877 7013 c-15 -14 -5 -21 25 -18 38 5 63 25 30 25 -12 0 -22 -4
-22 -10 0 -5 -5 -10 -11 -10 -5 0 -7 5 -4 10 7 11 -8 14 -18 3z"/>
<path d="M9963 7003 c-11 -10 -18 -24 -15 -32 3 -10 0 -12 -12 -8 -9 4 -16 2
-16 -3 0 -4 -13 -11 -29 -15 -31 -7 -58 -31 -47 -42 3 -4 13 2 21 13 8 10 15
15 15 9 0 -5 4 -4 9 4 8 13 12 13 27 0 10 -8 15 -9 11 -2 -5 8 1 15 18 19 14
3 25 12 25 20 0 8 7 14 15 14 8 0 15 9 15 20 0 25 -11 25 -37 3z"/>
<path d="M8225 6970 c-16 -17 -16 -20 -3 -15 9 4 19 13 22 21 7 19 2 18 -19
-6z"/>
<path d="M8170 6965 c0 -8 2 -15 4 -15 2 0 6 7 10 15 3 8 1 15 -4 15 -6 0 -10
-7 -10 -15z"/>
<path d="M9850 6960 c0 -5 4 -10 9 -10 6 0 13 5 16 10 3 6 -1 10 -9 10 -9 0
-16 -4 -16 -10z"/>
<path d="M8186 6945 c-3 -8 -1 -15 4 -15 6 0 10 7 10 15 0 8 -2 15 -4 15 -2 0
-6 -7 -10 -15z"/>
<path d="M9755 6949 c-9 -14 0 -22 18 -17 13 2 13 5 2 15 -10 9 -16 9 -20 2z"/>
<path d="M3926 6935 c4 -8 11 -15 16 -15 6 0 5 6 -2 15 -7 8 -14 15 -16 15 -2
0 -1 -7 2 -15z"/>
<path d="M8236 6938 c5 -8 2 -9 -10 -5 -12 5 -16 2 -14 -11 2 -9 7 -20 12 -23
4 -4 -4 -6 -19 -6 -18 0 -25 4 -21 13 3 8 -1 14 -9 14 -8 0 -15 -6 -15 -14 0
-8 -8 -17 -17 -19 -12 -3 -10 -5 7 -6 14 0 32 -10 40 -21 14 -19 47 -29 36
-11 -4 5 5 22 18 38 20 24 22 31 11 46 -14 19 -30 24 -19 5z"/>
<path d="M9731 6903 c-16 -18 -8 -28 13 -16 8 4 12 13 8 20 -5 8 -11 7 -21 -4z"/>
<path d="M8030 6890 c0 -5 7 -7 15 -4 8 4 15 8 15 10 0 2 -7 4 -15 4 -8 0 -15
-4 -15 -10z"/>
<path d="M7685 6880 c-3 -5 -2 -10 4 -10 5 0 13 5 16 10 3 6 2 10 -4 10 -5 0
-13 -4 -16 -10z"/>
<path d="M8110 6850 c13 -9 13 -11 1 -19 -8 -5 -21 -7 -30 -4 -12 4 -13 2 -3
-4 10 -7 8 -15 -8 -33 -11 -13 -20 -27 -20 -33 0 -5 -7 -4 -15 3 -12 10 -15 9
-15 -7 0 -11 -11 -30 -25 -43 -25 -23 -34 -60 -15 -60 6 0 10 -5 10 -11 0 -7
-9 -9 -21 -6 -15 4 -31 -5 -60 -36 -21 -23 -39 -45 -39 -49 0 -14 20 -19 37
-9 17 10 17 10 1 11 -16 0 -16 3 3 24 12 14 28 22 35 19 8 -3 14 0 14 5 0 11
38 28 53 24 5 -2 7 3 4 10 -2 7 0 22 6 33 9 18 11 18 16 2 6 -16 11 -14 44 17
21 20 43 39 50 43 25 16 76 102 65 109 -6 4 -17 -1 -24 -10 -7 -10 -17 -15
-22 -12 -5 3 -18 -4 -28 -16 -17 -19 -17 -21 -1 -15 11 4 17 1 17 -8 0 -9 -6
-12 -15 -9 -9 4 -15 0 -16 -7 0 -8 -4 -5 -8 6 -6 15 -2 26 18 43 14 12 34 25
44 28 32 10 17 24 -25 24 -32 0 -39 -3 -28 -10z m-25 -126 c-3 -27 -21 -52
-31 -42 -5 6 22 68 30 68 3 0 3 -12 1 -26z m-78 -60 c-9 -9 -28 6 -21 18 4 6
10 6 17 -1 6 -6 8 -13 4 -17z"/>
<path d="M9730 6845 c-7 -9 -11 -17 -9 -20 3 -2 10 5 17 15 14 24 10 26 -8 5z"/>
<path d="M3330 6789 c0 -6 35 -47 77 -90 42 -44 70 -79 62 -79 -8 -1 8 -12 34
-26 27 -14 47 -27 45 -30 -3 -2 -35 12 -71 33 -37 20 -65 39 -62 41 2 3 11 -1
20 -8 9 -7 18 -10 21 -7 3 3 -9 13 -26 22 -18 9 -29 12 -26 6 9 -14 0 -14 -25
0 -11 5 -17 14 -14 19 3 6 -1 7 -9 4 -9 -4 -18 1 -22 10 -3 9 -10 14 -14 11
-5 -3 -34 18 -64 46 -31 29 -59 49 -62 46 -3 -3 13 -33 35 -66 l40 -61 -43 25
c-50 29 -56 30 -56 10 0 -12 -6 -11 -32 5 -79 47 -75 46 -54 21 24 -26 7 -28
-23 -2 -14 13 -18 20 -9 23 8 3 7 6 -4 11 -13 5 -16 1 -12 -20 3 -15 8 -31 11
-37 4 -6 -3 -3 -14 7 -34 30 -35 19 -1 -13 33 -29 33 -29 8 -30 -24 0 -24 -1
8 -20 18 -11 30 -25 27 -30 -3 -6 2 -10 12 -10 12 0 14 -3 6 -8 -9 -6 -4 -13
17 -26 17 -9 30 -14 30 -10 0 3 6 1 14 -5 7 -6 22 -8 31 -4 12 4 16 3 11 -5
-4 -7 43 -26 141 -57 192 -60 180 -57 188 -46 4 7 15 5 30 -5 26 -17 137 -36
129 -22 -6 10 54 9 153 0 77 -8 91 3 18 14 -29 4 -45 11 -45 20 0 8 -10 14
-25 14 -24 0 -160 68 -152 76 5 5 113 -38 179 -72 49 -24 92 -31 102 -15 7 11
-50 35 -64 26 -5 -3 -24 1 -42 9 -17 9 -37 16 -45 16 -7 0 -13 5 -13 10 0 6
16 3 38 -6 59 -25 68 -28 57 -17 -22 21 -204 163 -209 163 -19 0 1 -34 40 -69
26 -23 41 -41 33 -42 -8 0 -5 -4 6 -9 18 -8 18 -9 2 -9 -10 -1 -20 6 -24 15
-3 8 -12 13 -20 10 -8 -3 -12 -2 -9 3 3 5 -6 9 -21 9 -15 0 -29 5 -31 11 -2 6
-8 9 -12 6 -15 -9 -80 28 -80 45 0 18 -162 180 -180 180 -5 0 -10 -5 -10 -11z
m132 -200 c111 -61 120 -68 111 -83 -3 -6 -3 -8 2 -4 4 4 17 1 29 -7 11 -8 32
-15 46 -15 14 -1 39 -7 55 -15 27 -13 27 -14 5 -10 -14 2 -47 7 -75 10 -85 11
-97 15 -84 31 7 8 10 16 8 17 -2 2 -38 20 -81 41 -65 32 -137 86 -115 86 4 0
49 -23 99 -51z m129 -46 c13 -15 12 -15 -8 -4 -24 12 -29 21 -14 21 5 0 15 -7
22 -17z m-284 -19 c-3 -3 -12 -4 -19 -1 -8 3 -5 6 6 6 11 1 17 -2 13 -5z m128
-34 l30 -8 -30 0 c-16 0 -41 4 -55 8 l-25 8 25 0 c14 0 39 -4 55 -8z m182 -36
c-3 -3 -12 -4 -19 -1 -8 3 -5 6 6 6 11 1 17 -2 13 -5z m80 -10 c-3 -3 -12 -4
-19 -1 -8 3 -5 6 6 6 11 1 17 -2 13 -5z"/>
<path d="M4119 6742 c11 -16 28 -35 38 -43 9 -8 2 5 -17 29 -38 48 -52 57 -21
14z"/>
<path d="M8281 6664 c-17 -20 -12 -24 17 -13 13 5 20 13 17 19 -8 14 -18 12
-34 -6z"/>
<path d="M8230 6618 c0 -19 2 -20 10 -8 13 19 13 30 0 30 -5 0 -10 -10 -10
-22z"/>
<path d="M4210 6616 c0 -2 8 -10 18 -17 15 -13 16 -12 3 4 -13 16 -21 21 -21
13z"/>
<path d="M7815 6584 c-24 -37 -11 -41 15 -5 12 17 17 31 12 31 -5 0 -17 -12
-27 -26z"/>
<path d="M7982 6584 c-24 -16 -30 -37 -9 -28 11 4 42 44 34 44 -1 0 -13 -7
-25 -16z"/>
<path d="M8207 6593 c-4 -3 -7 -11 -7 -17 0 -6 5 -5 12 2 6 6 9 14 7 17 -3 3
-9 2 -12 -2z"/>
<path d="M8156 6562 c-3 -5 1 -9 9 -9 8 0 15 4 15 9 0 4 -4 8 -9 8 -6 0 -12
-4 -15 -8z"/>
<path d="M7767 6544 c-8 -8 1 -24 14 -24 5 0 9 7 9 15 0 15 -12 20 -23 9z"/>
<path d="M7930 6540 c0 -5 5 -10 10 -10 6 0 10 5 10 10 0 6 -4 10 -10 10 -5 0
-10 -4 -10 -10z"/>
<path d="M8125 6530 c-3 -5 -1 -10 4 -10 6 0 11 5 11 10 0 6 -2 10 -4 10 -3 0
-8 -4 -11 -10z"/>
<path d="M7741 6508 c-1 -10 -8 -18 -16 -18 -8 0 -15 -4 -15 -10 0 -5 -5 -10
-11 -10 -5 0 -7 6 -3 13 4 6 -3 2 -15 -10 -12 -13 -26 -23 -31 -23 -6 0 -10
-9 -10 -20 0 -11 3 -20 8 -20 16 1 103 91 99 102 -3 8 -6 6 -6 -4z m-51 -53
c0 -2 -10 -9 -22 -15 -22 -11 -22 -10 -4 4 21 17 26 19 26 11z"/>
<path d="M4325 6480 c10 -11 20 -20 23 -20 3 0 -3 9 -13 20 -10 11 -20 20 -23
20 -3 0 3 -9 13 -20z"/>
<path d="M7845 6480 c-3 -5 -1 -10 4 -10 6 0 11 5 11 10 0 6 -2 10 -4 10 -3 0
-8 -4 -11 -10z"/>
<path d="M4296 6459 c11 -13 27 -32 35 -42 8 -10 23 -27 33 -37 11 -11 17 -20
13 -20 -3 0 14 -19 38 -42 24 -23 42 -45 39 -49 -2 -4 12 -19 31 -34 19 -16
32 -33 28 -38 -4 -6 -1 -7 6 -3 8 5 14 0 18 -13 3 -12 10 -21 15 -21 5 0 6 -5
2 -12 -4 -7 -3 -8 5 -4 8 5 40 -21 88 -71 l75 -78 -66 76 c-36 43 -66 80 -66
84 0 16 -266 302 -295 317 -19 10 -19 10 1 -13z"/>
<path d="M3926 6444 c-5 -12 -2 -15 10 -10 8 3 25 1 37 -6 29 -16 55 -20 61
-9 3 4 -13 14 -35 20 -23 7 -47 15 -54 17 -7 3 -15 -2 -19 -12z"/>
<path d="M5900 6446 c0 -2 14 -20 30 -41 35 -44 33 -54 -4 -30 -53 35 -23 -3
64 -79 50 -44 90 -81 90 -83 0 -3 -35 15 -77 38 -43 24 -72 36 -66 28 7 -9 29
-24 48 -35 19 -10 35 -23 35 -27 0 -15 -51 -1 -138 38 -76 34 -83 35 -98 20
-15 -15 -17 -14 -29 7 -6 13 -17 22 -23 21 -6 -2 -25 15 -42 37 -34 44 -55 52
-47 19 4 -15 2 -19 -9 -15 -23 9 -16 -3 16 -31 17 -13 28 -29 24 -34 -3 -5 0
-9 6 -9 6 0 8 -5 4 -12 -5 -7 -18 1 -41 25 -18 20 -33 34 -33 31 0 -4 -8 0
-17 7 -21 17 -19 15 54 -95 29 -43 50 -82 48 -87 -3 -4 4 -25 15 -46 11 -21
20 -54 20 -73 l-1 -35 -22 27 c-24 30 -63 46 -177 73 -41 10 -91 27 -110 38
-34 20 -33 19 15 -34 27 -30 52 -56 55 -59 19 -17 82 -101 84 -113 1 -7 12
-26 24 -42 32 -40 37 -72 19 -110 -20 -42 -67 -58 -242 -80 -149 -19 -178 -25
-170 -34 4 -3 75 -18 158 -32 145 -25 151 -27 122 -40 -16 -7 -41 -20 -55 -29
-37 -23 -91 -40 -131 -40 -32 0 -42 7 -88 62 -46 54 -51 63 -34 69 15 6 14 7
-7 10 -17 3 -54 36 -110 98 -47 52 -93 95 -103 97 -9 1 -15 -2 -11 -7 3 -5 8
-8 12 -6 4 2 15 -4 24 -14 12 -13 13 -19 5 -23 -7 -3 -3 -4 8 -3 13 1 20 -4
20 -15 0 -10 6 -23 13 -30 6 -6 12 -8 12 -4 0 5 7 3 15 -4 13 -10 13 -15 3
-21 -9 -5 -4 -11 15 -18 15 -6 27 -13 27 -16 0 -4 -5 -3 -12 1 -7 4 -2 -7 11
-24 12 -17 26 -31 30 -29 11 3 82 -83 76 -93 -6 -10 207 -230 224 -230 7 0 0
11 -16 24 -42 36 -122 152 -97 142 10 -5 52 -15 93 -24 63 -13 109 -14 295 -5
122 5 229 6 238 1 14 -7 16 -5 11 8 -5 14 -3 15 14 6 17 -9 170 -26 322 -36
22 -1 44 -5 48 -9 9 -10 23 -9 23 2 0 8 -151 126 -230 177 -25 17 -71 43 -102
59 -32 15 -58 31 -58 35 0 4 -14 13 -30 20 -52 21 -44 31 20 25 38 -3 80 -15
113 -32 47 -24 68 -39 146 -104 13 -11 32 -24 43 -30 31 -17 67 -48 149 -131
41 -43 79 -75 82 -71 4 3 7 -1 7 -10 0 -8 9 -19 20 -22 11 -3 20 -13 20 -22 0
-10 6 -13 16 -9 8 3 13 2 9 -3 -3 -5 9 -20 27 -32 29 -20 31 -20 16 -3 -10 11
-18 23 -18 27 0 7 95 -32 240 -99 100 -46 95 -35 -15 31 -36 22 -78 50 -91 63
-14 12 -53 36 -87 53 -71 37 -139 80 -133 86 2 3 18 -3 35 -11 17 -9 34 -15
38 -14 4 2 42 -19 84 -45 42 -26 79 -47 82 -47 17 0 -42 82 -99 138 -36 34
-62 62 -58 62 21 0 140 -67 165 -92 16 -17 29 -28 29 -24 0 36 107 -113 133
-186 4 -10 13 -18 20 -18 8 0 20 -7 27 -15 7 -8 53 -46 104 -84 107 -81 268
-222 262 -228 -2 -3 -46 25 -96 61 -51 36 -96 66 -101 66 -5 0 -8 5 -7 10 3
11 -184 151 -192 144 -2 -3 9 -16 24 -29 16 -14 25 -25 19 -25 -5 0 -65 23
-134 50 -128 52 -183 62 -119 22 19 -12 31 -22 25 -22 -39 0 147 -69 257 -95
18 -5 30 -17 38 -38 7 -18 14 -26 17 -19 3 7 -1 19 -7 28 -29 34 1 16 90 -54
52 -41 94 -75 92 -76 -13 -5 18 -40 67 -75 59 -43 74 -68 114 -191 9 -25 25
-69 37 -99 l21 -54 -28 18 c-54 34 -128 94 -171 138 -41 41 -42 45 -22 50 32
8 23 48 -13 58 -32 9 -106 60 -150 104 -27 28 -29 33 -23 85 4 38 3 50 -4 40
-6 -10 -10 -11 -10 -2 0 28 -18 9 -26 -28 l-9 -40 -58 54 c-97 91 -97 85 -1
-15 95 -97 114 -129 94 -155 -10 -12 -6 -21 25 -49 22 -22 35 -41 31 -50 -3
-8 -1 -15 4 -15 5 0 11 -9 15 -19 4 -13 12 -17 25 -14 12 3 20 0 20 -6 0 -14
23 -38 72 -74 21 -15 37 -33 35 -39 -1 -6 52 -50 117 -97 66 -48 123 -93 127
-101 5 -8 26 -61 47 -117 65 -169 143 -263 309 -373 46 -30 83 -59 83 -64 0
-16 -279 2 -369 24 -103 25 -129 20 -77 -15 20 -14 41 -25 46 -25 6 0 18 -8
28 -17 9 -10 51 -35 92 -57 41 -21 82 -44 90 -51 8 -7 42 -27 75 -45 33 -18
84 -49 113 -67 29 -19 57 -33 63 -31 5 2 -21 21 -58 43 -37 21 -93 55 -123 74
l-55 35 65 12 c36 7 78 16 94 20 19 4 31 2 36 -6 7 -11 13 -11 32 2 63 40 121
31 248 -42 47 -27 121 -67 165 -90 44 -24 96 -51 115 -61 19 -11 47 -19 62
-19 24 0 32 -8 30 -30 0 -3 11 -7 24 -8 18 -1 23 2 18 11 -8 12 26 -11 37 -26
3 -5 10 -8 15 -8 5 1 63 -25 129 -58 134 -67 271 -130 359 -168 151 -64 479
-237 526 -278 14 -12 39 -27 55 -34 17 -7 53 -32 80 -56 l50 -44 -62 4 c-34 2
-83 13 -110 24 -96 41 -279 103 -333 112 -30 6 -84 17 -119 25 -35 8 -67 11
-70 8 -14 -14 126 -84 169 -84 7 0 21 -6 29 -13 9 -8 57 -26 106 -42 50 -15
104 -33 120 -40 17 -7 46 -16 65 -20 19 -4 44 -13 55 -21 28 -18 185 -74 207
-74 15 0 18 8 18 44 0 39 -4 47 -30 63 -16 9 -30 21 -30 26 0 5 11 2 25 -7 13
-9 27 -16 30 -16 3 0 5 26 3 58 l-3 57 -232 140 c-128 77 -239 147 -247 155
-11 11 -13 25 -7 58 5 23 5 42 2 42 -4 0 -13 16 -20 36 -15 42 -75 106 -144
153 -32 22 -47 38 -43 48 3 8 6 21 6 29 0 8 10 14 25 14 14 0 25 -4 25 -10 0
-5 11 -10 25 -10 18 0 25 -5 23 -16 -5 -25 46 -27 68 -3 9 10 25 19 35 19 9 0
19 5 21 10 2 6 21 12 43 14 66 7 115 18 121 27 3 5 15 9 27 9 24 0 93 22 103
33 4 4 18 7 30 7 13 0 28 9 34 20 7 13 21 20 39 20 16 0 37 10 49 23 22 24 22
24 22 480 0 251 -4 457 -8 456 -4 0 -37 -42 -74 -92 -64 -87 -87 -115 -144
-179 -13 -15 -24 -31 -24 -36 0 -4 -9 -14 -20 -22 -11 -8 -20 -18 -20 -22 0
-4 -13 -22 -30 -40 -16 -18 -30 -36 -30 -41 0 -8 -10 -21 -40 -55 -25 -28 -55
-76 -52 -84 1 -5 -5 -8 -13 -8 -9 0 -15 -10 -15 -26 0 -16 -4 -23 -11 -18 -11
6 -8 46 6 89 3 11 -1 7 -10 -8 -9 -15 -17 -48 -19 -74 -1 -28 -9 -50 -19 -58
-20 -14 -37 -57 -37 -91 0 -37 17 -20 25 25 4 22 19 53 37 72 32 37 80 94 100
121 12 15 14 16 28 0 13 -14 12 -15 -2 -9 -12 4 -26 -6 -47 -35 -36 -48 -32
-67 4 -23 13 17 24 25 25 18 0 -6 -4 -13 -8 -15 -9 -3 -150 -189 -169 -222 -7
-11 -18 -42 -25 -68 l-13 -47 -86 62 c-47 34 -105 78 -128 97 -38 32 -40 36
-19 35 13 0 30 -4 38 -9 13 -8 13 -7 2 6 -8 11 -25 15 -47 14 -20 -2 -40 3
-46 10 -6 8 -8 14 -3 14 4 0 3 5 -4 12 -7 7 -12 32 -12 58 0 25 4 40 8 35 11
-17 64 -55 75 -55 10 0 -4 14 -67 63 -20 15 -36 34 -36 42 0 21 7 19 49 -13
70 -56 161 -113 161 -102 0 6 -7 13 -15 16 -8 4 -12 10 -9 15 9 15 -52 86
-220 255 -161 160 -374 330 -518 413 l-58 32 6 -31 c5 -23 2 -34 -12 -45 -25
-19 -31 -19 -37 5 -3 11 -12 20 -21 20 -9 0 -16 7 -16 15 0 8 -6 15 -13 15 -7
0 -38 22 -68 48 -143 126 -405 310 -530 373 -73 37 -163 70 -199 73 -23 2
-100 39 -100 48 0 4 -7 8 -15 8 -9 0 -27 8 -41 17 -22 14 -27 14 -34 3 -7 -12
-12 -11 -29 4 -12 11 -21 14 -21 7 0 -11 -28 -10 -92 5 -16 4 -28 4 -28 1 0
-6 47 -114 69 -157 10 -19 20 -52 24 -73 5 -33 4 -36 -11 -27 -38 21 -352 326
-352 341 0 5 -6 9 -12 9 -13 0 -27 20 -80 109 -32 54 -34 62 -10 55 9 -3 5 2
-9 10 -15 9 -41 41 -59 73 -42 76 -127 186 -187 244 -27 25 -55 59 -63 75 -27
52 -123 194 -132 194 -14 0 4 -53 29 -84 28 -34 56 -86 50 -92 -3 -3 -31 25
-63 62 -33 38 -79 91 -104 118 -44 50 -30 42 49 -29 24 -21 31 -24 23 -10 -11
23 -196 196 -281 265 -31 25 -84 69 -119 98 -59 49 -72 57 -72 48z m-57 -253
c-7 -2 -21 -2 -30 0 -10 3 -4 5 12 5 17 0 24 -2 18 -5z m297 -43 c13 -9 13
-10 0 -10 -8 0 -22 5 -30 10 -13 9 -13 10 0 10 8 0 22 -5 30 -10z m3 -37 c16
-8 27 -17 24 -20 -6 -6 -97 33 -97 42 0 8 36 -3 73 -22z m45 -82 c66 -33 113
-66 147 -100 27 -28 46 -51 42 -51 -25 0 -207 111 -247 151 -27 27 -47 49 -44
49 2 0 48 -22 102 -49z m143 -26 c46 -50 60 -73 50 -79 -4 -3 -16 3 -26 14
-10 11 -14 20 -10 20 5 0 -9 18 -30 40 -21 22 -34 40 -27 40 6 0 26 -16 43
-35z m129 -156 c19 -23 46 -56 60 -73 14 -17 43 -53 65 -80 l39 -49 -30 6
c-26 6 -25 4 8 -11 20 -9 51 -35 68 -57 17 -22 39 -49 48 -60 22 -25 72 -104
72 -112 0 -13 -45 35 -87 95 -25 34 -48 60 -53 57 -4 -3 -7 3 -6 13 0 9 -5 16
-12 14 -18 -3 -122 30 -122 39 0 4 10 9 22 12 41 11 13 16 -34 6 -58 -13 -72
-6 -172 85 -64 59 -74 72 -65 88 6 11 15 16 22 11 7 -4 7 0 -2 10 -16 20 -3
22 21 3 10 -7 14 -17 10 -21 -4 -5 1 -5 10 -2 9 3 18 3 20 -1 4 -10 160 -114
164 -110 1 2 -51 43 -117 92 -65 48 -119 90 -119 92 0 3 17 -4 38 -14 20 -11
55 -25 77 -32 22 -7 53 -24 69 -39 25 -22 23 -18 -9 24 -64 82 -63 80 -40 68
11 -6 36 -30 55 -54z m72 -48 l31 -46 -32 30 c-37 34 -79 102 -47 76 10 -8 32
-35 48 -60z m-276 40 c-3 -5 -17 -11 -32 -14 -29 -5 -20 9 11 16 11 3 21 5 23
6 2 0 1 -3 -2 -8z m451 -245 c11 -22 12 -27 1 -24 -13 5 -86 124 -87 143 -1
12 65 -78 86 -119z m-1583 58 c3 -8 2 -12 -4 -9 -6 3 -10 10 -10 16 0 14 7 11
14 -7z m1513 -107 c36 -32 20 -31 -43 2 l-59 31 40 -6 c22 -4 50 -16 62 -27z
m1268 -607 c3 -5 1 -10 -4 -10 -6 0 -11 5 -11 10 0 6 2 10 4 10 3 0 8 -4 11
-10z m-709 -217 c-8 -8 -36 5 -36 17 0 7 6 7 21 0 11 -7 18 -14 15 -17z m74
-163 c0 -5 -2 -10 -4 -10 -3 0 -8 5 -11 10 -3 6 -1 10 4 10 6 0 11 -4 11 -10z
m88 -67 c26 -15 67 -42 92 -60 25 -19 68 -49 95 -68 196 -134 285 -199 285
-207 0 -12 -4 -10 -135 81 -60 42 -144 99 -185 126 -41 28 -86 60 -100 73 -13
12 -28 22 -31 22 -3 0 -23 14 -44 30 -47 37 -38 38 23 3z m2583 -22 c-7 -5
-10 -14 -7 -20 4 -6 0 -21 -8 -33 -9 -12 -16 -17 -16 -11 0 7 5 15 10 18 6 3
10 11 10 17 0 6 -7 5 -17 -3 -14 -12 -14 -10 1 14 10 15 23 27 30 27 6 0 5 -4
-3 -9z m-51 -78 c0 -22 -17 -50 -25 -42 -6 7 11 59 20 59 3 0 5 -8 5 -17z
m-52 -53 c-7 -10 -14 -18 -15 -16 -6 6 9 36 18 36 5 0 4 -9 -3 -20z m-35 -80
c-9 -10 -22 -16 -29 -13 -9 3 -8 9 4 22 23 24 46 16 25 -9z m-42 -29 c7 11 9
11 9 -2 0 -18 -23 -42 -32 -33 -3 3 -3 15 0 27 3 13 7 16 10 8 4 -11 6 -11 13
0z m-1881 -98 c28 -19 60 -51 60 -58 0 -8 -100 59 -100 68 0 12 14 8 40 -10z
m1795 -3 c-3 -5 -1 -10 6 -10 7 0 10 -3 6 -6 -9 -9 -28 6 -22 17 4 5 8 9 11 9
3 0 2 -4 -1 -10z m-11 -53 c-3 -9 -11 -17 -17 -17 -8 0 -8 3 0 11 6 6 9 19 6
28 -4 12 -3 13 6 5 6 -6 9 -18 5 -27z m-1684 -22 c7 -8 8 -15 2 -15 -5 0 -15
7 -22 15 -7 8 -8 15 -2 15 5 0 15 -7 22 -15z m75 -61 c22 -20 50 -43 63 -51
12 -9 20 -18 18 -20 -3 -3 -35 20 -71 51 -36 31 -63 56 -58 56 4 0 26 -16 48
-36z m1064 -681 c41 -19 80 -32 88 -29 8 3 12 2 9 -3 -3 -5 5 -12 19 -15 14
-4 25 -11 25 -16 0 -6 -1 -10 -3 -10 -10 0 -234 103 -242 111 -13 14 12 4 104
-38z m234 -51 c35 -24 56 -52 57 -76 0 -17 -4 -16 -31 10 -37 35 -73 84 -62
84 4 0 20 -8 36 -18z m615 -550 c2 -7 -3 -12 -12 -12 -9 0 -16 7 -16 16 0 17
22 14 28 -4z"/>
<path d="M6350 5956 c0 -2 8 -10 18 -17 15 -13 16 -12 3 4 -13 16 -21 21 -21
13z"/>
<path d="M6270 5805 c0 -8 2 -15 4 -15 2 0 6 7 10 15 3 8 1 15 -4 15 -6 0 -10
-7 -10 -15z"/>
<path d="M5515 6386 c27 -25 54 -46 60 -46 5 1 0 9 -13 18 -13 9 -40 30 -60
45 -22 17 -17 10 13 -17z"/>
<path d="M7609 6388 c-8 -7 -20 -20 -27 -29 -17 -23 13 -21 34 2 21 23 15 45
-7 27z"/>
<path d="M7660 6385 c-8 -9 -8 -15 -2 -15 12 0 26 19 19 26 -2 2 -10 -2 -17
-11z"/>
<path d="M3825 6377 c-149 -9 -194 -27 -68 -27 62 0 82 -3 87 -15 7 -19 -34
-49 -48 -35 -16 16 -28 11 -21 -10 5 -15 -3 -23 -37 -41 -24 -12 -61 -34 -83
-49 -22 -15 -52 -35 -67 -44 -56 -33 -26 -33 38 1 l65 35 49 -53 c26 -30 47
-55 46 -57 -2 -1 -28 7 -59 17 -107 37 -118 17 -30 -56 75 -62 160 -116 262
-167 51 -26 91 -49 88 -52 -3 -3 -78 31 -167 76 -90 44 -165 78 -168 75 -7 -6
-12 -3 93 -66 50 -30 136 -76 192 -103 57 -27 101 -51 99 -53 -2 -2 -52 8
-111 22 -186 44 -243 29 -72 -19 127 -36 145 -45 92 -46 -22 -1 -49 -5 -60 -9
-14 -6 -7 -9 30 -14 77 -10 125 -26 119 -40 -5 -13 82 -45 181 -66 189 -40
245 -53 245 -57 0 -2 -17 -2 -37 1 -61 9 -196 12 -223 5 -14 -3 39 -13 132
-24 135 -15 184 -23 306 -51 13 -3 20 -9 18 -14 -3 -5 22 -20 55 -35 64 -28
84 -33 59 -15 -12 8 -10 9 10 5 14 -3 31 -6 38 -6 6 0 12 -4 12 -9 0 -5 -10
-7 -22 -4 -16 4 -20 2 -13 -4 13 -13 156 -50 220 -57 l50 -5 -60 14 c-33 8
-85 20 -115 26 -44 10 -50 14 -31 18 20 5 12 10 -43 30 -45 16 -63 27 -55 32
8 4 10 11 6 15 -3 4 -13 1 -22 -6 -13 -11 -14 -10 -10 2 6 15 -6 20 -65 33 -8
2 -28 9 -45 16 -16 7 -34 14 -40 14 -5 1 -23 5 -38 10 -22 6 -26 10 -15 17 9
7 7 8 -10 5 -12 -3 -20 -2 -17 3 2 4 -13 15 -35 25 -22 10 -40 22 -40 26 0 5
-12 11 -27 15 -38 9 -153 67 -211 107 -26 17 -63 41 -82 51 -49 27 -101 68
-95 74 6 6 76 -28 90 -45 11 -13 80 -54 140 -83 22 -11 47 -24 55 -29 29 -17
95 -49 105 -52 6 -1 20 -8 32 -17 13 -8 30 -12 38 -8 9 3 14 2 11 -3 -3 -5 8
-14 26 -20 44 -16 45 -15 12 21 l-29 32 35 -29 c19 -15 34 -32 33 -37 -2 -4 2
-7 9 -5 7 1 12 -5 13 -13 0 -8 9 -15 20 -16 11 -1 46 -13 78 -29 32 -15 61
-24 64 -21 3 3 -5 10 -18 15 -13 5 -42 25 -63 45 -22 20 -48 38 -58 42 -10 3
-18 9 -18 12 0 4 -29 30 -65 57 -36 27 -65 52 -65 57 0 4 -7 8 -15 8 -23 0
-18 -19 13 -49 19 -20 24 -31 17 -38 -8 -7 -17 -6 -31 4 -18 14 -18 15 6 8 21
-5 17 1 -20 34 -25 22 -49 41 -54 41 -6 0 -5 -5 2 -12 8 -8 8 -17 0 -31 -8
-16 -12 -17 -19 -6 -4 8 -12 14 -16 14 -19 1 -53 27 -48 36 4 5 -8 21 -25 35
-59 50 -75 65 -60 58 8 -4 23 -14 33 -22 12 -11 21 -12 28 -5 7 7 1 18 -23 34
-18 13 -36 27 -39 32 -4 6 -15 7 -24 3 -10 -3 -30 4 -51 20 -35 27 -127 158
-159 226 -18 40 -32 54 -55 60 -12 3 -68 91 -70 110 0 3 24 8 53 10 28 3 108
13 177 24 119 18 123 19 75 25 -49 6 -263 -6 -297 -17 -32 -10 -19 5 22 26 26
13 59 20 96 20 32 0 55 3 51 6 -3 3 -32 6 -64 5 -31 0 -60 3 -63 7 -3 4 -63 3
-135 -1z m52 -13 c-3 -3 -12 -4 -19 -1 -8 3 -5 6 6 6 11 1 17 -2 13 -5z m3
-114 c6 -11 8 -20 6 -20 -3 0 -10 9 -16 20 -6 11 -8 20 -6 20 3 0 10 -9 16
-20z m-40 -87 c25 -49 46 -92 49 -97 2 -5 -30 26 -70 69 -41 42 -75 80 -77 84
-2 7 33 28 48 30 3 1 26 -38 50 -86z m645 -501 c-3 -3 -11 0 -18 7 -9 10 -8
11 6 5 10 -3 15 -9 12 -12z m-25 -12 c0 -5 -2 -10 -4 -10 -3 0 -8 5 -11 10 -3
6 -1 10 4 10 6 0 11 -4 11 -10z m-323 -6 c-3 -3 -12 -4 -19 -1 -8 3 -5 6 6 6
11 1 17 -2 13 -5z m126 -25 c22 -6 37 -13 34 -15 -3 -3 -27 1 -53 10 -56 17
-39 21 19 5z m84 -25 c-3 -3 -12 -4 -19 -1 -8 3 -5 6 6 6 11 1 17 -2 13 -5z
m368 -49 c39 -32 29 -32 -15 0 -19 14 -30 25 -24 25 5 -1 23 -12 39 -25z"/>
<path d="M3998 6383 c7 -3 16 -2 19 1 4 3 -2 6 -13 5 -11 0 -14 -3 -6 -6z"/>
<path d="M4138 6373 c6 -2 18 -2 25 0 6 3 1 5 -13 5 -14 0 -19 -2 -12 -5z"/>
<path d="M4348 6333 c6 -2 18 -2 25 0 6 3 1 5 -13 5 -14 0 -19 -2 -12 -5z"/>
<path d="M7916 6331 c-4 -7 -5 -15 -2 -18 9 -9 19 4 14 18 -4 11 -6 11 -12 0z"/>
<path d="M7539 6298 c-13 -18 -28 -36 -34 -40 -7 -5 -7 -8 1 -8 16 0 75 68 65
75 -5 3 -20 -9 -32 -27z"/>
<path d="M7929 6173 c-13 -16 -12 -17 4 -4 9 7 17 15 17 17 0 8 -8 3 -21 -13z"/>
<path d="M8015 6107 c-4 -10 -5 -21 -1 -24 10 -10 18 4 13 24 -4 17 -4 17 -12
0z"/>
<path d="M7810 5939 c0 -5 5 -7 10 -4 6 3 10 8 10 11 0 2 -4 4 -10 4 -5 0 -10
-5 -10 -11z"/>
<path d="M4772 5929 c2 -7 10 -15 17 -17 8 -3 12 1 9 9 -2 7 -10 15 -17 17 -8
3 -12 -1 -9 -9z"/>
<path d="M4220 5881 c0 -5 5 -13 10 -16 6 -3 10 -2 10 4 0 5 -4 13 -10 16 -5
3 -10 2 -10 -4z"/>
<path d="M4923 5875 c0 -8 4 -12 9 -9 5 3 6 10 3 15 -9 13 -12 11 -12 -6z"/>
<path d="M7710 5814 c0 -9 5 -14 12 -12 18 6 21 28 4 28 -9 0 -16 -7 -16 -16z"/>
<path d="M4335 5780 c-8 -13 36 -51 52 -45 7 2 15 -1 19 -7 4 -7 3 -8 -4 -4
-7 4 -12 3 -12 -3 0 -6 -8 -8 -17 -4 -19 7 -18 5 11 -17 13 -10 17 -10 12 -2
-9 15 -1 15 27 0 19 -10 20 -9 10 4 -7 8 -11 17 -8 20 5 4 -69 68 -79 68 -3 0
-8 -5 -11 -10z m50 -30 c3 -6 -1 -7 -9 -4 -18 7 -21 14 -7 14 6 0 13 -4 16
-10z"/>
<path d="M5140 5597 c0 -2 14 -16 31 -33 32 -29 32 -29 15 -2 -14 21 -46 46
-46 35z"/>
<path d="M9950 5530 c0 -5 5 -10 10 -10 6 0 10 5 10 10 0 6 -4 10 -10 10 -5 0
-10 -4 -10 -10z"/>
<path d="M5110 5526 c0 -2 7 -6 15 -10 8 -3 15 -1 15 4 0 6 -7 10 -15 10 -8 0
-15 -2 -15 -4z"/>
<path d="M9862 5500 c-17 -27 26 -35 50 -10 24 26 23 29 -11 28 -15 -1 -33 -9
-39 -18z"/>
<path d="M9734 5489 c-19 -21 -19 -21 9 -8 15 7 27 16 27 21 0 14 -16 9 -36
-13z"/>
<path d="M6851 5457 c2 -2 20 -14 39 -26 l35 -23 -30 26 c-16 14 -34 26 -39
26 -5 0 -7 -1 -5 -3z"/>
<path d="M9815 5450 c-3 -5 -1 -10 4 -10 6 0 11 5 11 10 0 6 -2 10 -4 10 -3 0
-8 -4 -11 -10z"/>
<path d="M4861 5424 c13 -16 29 -19 29 -5 0 5 -9 11 -21 14 -16 4 -18 3 -8 -9z"/>
<path d="M5962 5418 c-16 -16 -15 -29 1 -27 32 4 57 -2 57 -15 0 -10 35 -16
148 -26 169 -14 259 -25 286 -36 18 -7 18 -6 2 19 -32 47 -61 57 -223 78 -181
22 -254 24 -271 7z"/>
<path d="M9786 5415 c-11 -8 -15 -15 -9 -15 19 0 43 12 43 21 0 13 -12 11 -34
-6z"/>
<path d="M9565 5410 c-3 -5 -1 -10 4 -10 6 0 11 5 11 10 0 6 -2 10 -4 10 -3 0
-8 -4 -11 -10z"/>
<path d="M9620 5410 c0 -12 57 -13 64 -2 3 5 -10 9 -29 10 -19 1 -35 -3 -35
-8z"/>
<path d="M5710 5368 c11 -24 27 -69 36 -101 10 -36 20 -55 26 -50 8 4 9 0 4
-13 -4 -10 -4 -15 0 -11 9 9 43 -55 37 -70 -3 -7 0 -13 7 -13 6 0 8 -5 5 -10
-4 -6 -1 -9 6 -8 6 2 14 -3 17 -11 2 -8 0 -11 -6 -7 -6 3 -4 -7 4 -24 17 -33
26 -40 18 -12 -5 16 -5 16 6 -1 6 -9 8 -22 5 -27 -4 -6 -1 -9 6 -8 8 2 14 -7
15 -20 1 -22 24 -56 24 -37 0 5 11 -7 25 -27 14 -20 25 -39 25 -42 0 -23 -274
285 -320 359 -18 28 -26 35 -28 23 -10 -49 138 -233 305 -381 46 -40 55 -45
47 -22 -8 20 6 19 22 -2 17 -22 18 -37 2 -27 -7 4 -8 3 -4 -5 4 -6 12 -9 17
-5 5 3 16 -10 23 -28 14 -33 67 -98 79 -98 14 0 6 18 -24 51 -78 86 -229 333
-320 525 -37 79 -71 144 -74 144 -2 0 4 -19 15 -42z"/>
<path d="M9701 5389 c-22 -20 -23 -38 -2 -24 11 6 35 45 28 45 -2 0 -13 -9
-26 -21z"/>
<path d="M6950 5396 c0 -2 8 -10 18 -17 15 -13 16 -12 3 4 -13 16 -21 21 -21
13z"/>
<path d="M9940 5380 c0 -5 7 -10 16 -10 8 0 12 5 9 10 -3 6 -10 10 -16 10 -5
0 -9 -4 -9 -10z"/>
<path d="M9765 5370 c-3 -5 3 -10 15 -10 12 0 18 5 15 10 -3 6 -10 10 -15 10
-5 0 -12 -4 -15 -10z"/>
<path d="M9845 5370 c-3 -5 3 -10 14 -10 12 0 21 5 21 10 0 6 -6 10 -14 10 -8
0 -18 -4 -21 -10z"/>
<path d="M4977 5360 c29 -12 190 -40 223 -39 14 1 -20 9 -75 19 -55 9 -116 20
-135 24 -28 5 -30 4 -13 -4z"/>
<path d="M9437 5325 c-15 -14 -35 -25 -43 -25 -8 0 -14 -4 -14 -9 0 -11 60 4
69 16 3 5 22 16 41 25 l35 17 -30 0 c-18 0 -41 -9 -58 -24z"/>
<path d="M7034 5331 c7 -11 46 -35 46 -28 0 3 -12 12 -26 22 -15 9 -23 12 -20
6z"/>
<path d="M9563 5330 c-23 -9 -32 -30 -13 -30 6 0 10 4 10 8 0 5 10 14 23 20
27 13 11 14 -20 2z"/>
<path d="M9650 5330 c20 -13 33 -13 25 0 -3 6 -14 10 -23 10 -15 0 -15 -2 -2
-10z"/>
<path d="M9795 5331 c-6 -11 33 -36 42 -27 5 5 -21 36 -31 36 -3 0 -7 -4 -11
-9z"/>
<path d="M6357 5313 c-4 -3 28 -23 71 -44 113 -55 172 -79 172 -70 0 19 -77
75 -133 97 -61 24 -98 30 -110 17z"/>
<path d="M6760 5314 c0 -5 28 -29 61 -53 34 -24 59 -37 57 -30 -2 7 -27 26
-54 42 -27 16 -52 34 -56 41 -5 7 -8 7 -8 0z"/>
<path d="M5163 5303 c9 -2 23 -2 30 0 6 3 -1 5 -18 5 -16 0 -22 -2 -12 -5z"/>
<path d="M9795 5290 c4 -7 -2 -9 -17 -5 -18 4 -26 0 -35 -21 -16 -35 -6 -45
16 -18 10 12 26 23 36 25 23 5 32 29 10 29 -9 0 -13 -5 -10 -10z"/>
<path d="M9604 5279 c-10 -17 -109 -60 -112 -49 -2 6 -8 10 -13 10 -4 0 -6 -8
-2 -17 4 -14 1 -13 -18 5 -20 19 -22 24 -9 32 28 17 2 21 -31 5 -24 -13 -28
-19 -18 -25 7 -5 17 -6 22 -3 5 3 7 -5 5 -18 -1 -12 -10 -24 -18 -26 -12 -4
-13 -3 -1 5 7 5 10 15 7 21 -10 16 -62 13 -76 -4 -11 -13 -10 -14 5 -8 14 5
17 3 12 -10 -5 -14 0 -17 28 -17 19 0 35 -5 35 -11 0 -5 5 -7 10 -4 6 4 17 2
24 -5 11 -8 23 -6 52 11 35 19 124 102 124 114 0 9 -19 5 -26 -6z"/>
<path d="M9700 5275 c-16 -19 -1 -19 24 0 16 12 17 15 4 15 -8 0 -21 -7 -28
-15z"/>
<path d="M9905 5276 c-29 -8 -41 -18 -43 -34 -2 -12 -8 -22 -13 -22 -5 0 -9
-5 -9 -11 0 -6 8 -8 19 -4 11 3 22 1 26 -6 5 -7 13 1 22 20 9 17 22 31 29 31
8 0 14 6 14 14 0 8 6 17 13 19 25 11 -18 5 -58 -7z"/>
<path d="M9979 5273 c-24 -6 -21 -63 3 -63 14 0 18 8 18 35 0 19 -1 34 -2 34
-2 -1 -10 -3 -19 -6z"/>
<path d="M9289 5249 c-24 -18 -24 -19 -2 -19 24 0 73 19 73 29 0 14 -49 7 -71
-10z"/>
<path d="M9798 5231 c-29 -23 -74 -28 -81 -8 -4 10 -6 10 -6 0 -1 -7 8 -22 19
-33 23 -23 43 -17 81 21 29 29 18 44 -13 20z"/>
<path d="M6640 5232 c0 -12 19 -26 26 -19 2 2 -2 10 -11 17 -9 8 -15 8 -15 2z"/>
<path d="M9666 5215 c-3 -8 -10 -15 -16 -15 -6 0 -8 5 -4 12 5 8 2 9 -10 5
-10 -4 -29 -10 -42 -13 -14 -4 -23 -11 -21 -18 5 -14 47 -21 47 -7 0 6 14 11
30 11 23 0 30 4 30 20 0 24 -6 26 -14 5z"/>
<path d="M9273 5187 c1 -14 10 -30 20 -37 17 -10 18 -9 12 12 -4 13 -13 29
-20 37 -11 11 -13 9 -12 -12z"/>
<path d="M9695 5180 c-3 -5 1 -10 10 -10 9 0 13 5 10 10 -3 6 -8 10 -10 10 -2
0 -7 -4 -10 -10z"/>
<path d="M9560 5141 c0 -5 -10 -11 -22 -14 -21 -6 -21 -7 -3 -27 20 -22 7 -27
-26 -9 -25 13 -62 3 -39 -11 8 -5 12 -10 10 -12 -3 -2 -22 -18 -42 -37 -33
-30 -41 -33 -60 -24 -36 18 -78 25 -78 13 0 -5 -5 -10 -11 -10 -6 0 -8 9 -4
20 7 23 -2 25 -27 6 -23 -17 -24 -56 -2 -56 11 0 14 -5 10 -16 -3 -9 -6 -22
-6 -30 0 -8 -9 -14 -19 -14 -11 0 -23 -4 -26 -10 -9 -14 -35 -12 -69 5 -15 8
-32 12 -37 9 -5 -3 -9 6 -9 20 0 14 5 26 11 26 8 0 7 5 -1 15 -12 14 -15 14
-31 -1 -10 -9 -27 -14 -39 -11 -11 3 -23 1 -26 -4 -3 -5 0 -9 5 -9 19 0 12
-29 -9 -42 -22 -14 -28 -52 -7 -46 6 3 16 14 22 26 5 12 15 22 22 22 6 0 13 5
15 12 2 6 9 9 15 7 7 -2 -5 -24 -27 -49 -34 -40 -41 -44 -59 -33 -15 10 -20 9
-25 -2 -3 -9 1 -15 9 -15 8 0 15 -6 15 -13 0 -7 21 -29 48 -48 65 -50 71 -52
87 -39 10 8 15 8 20 -1 4 -6 2 -15 -5 -19 -9 -5 -5 -12 11 -24 236 -170 286
-205 294 -205 6 0 48 52 95 116 47 63 99 131 115 150 60 71 114 147 109 155
-3 4 1 8 9 8 10 0 13 8 9 25 -3 18 -1 24 9 20 16 -6 25 0 59 38 20 23 22 30
10 37 -9 6 -18 3 -27 -8 -11 -15 -12 -15 -13 5 0 29 29 45 55 31 15 -9 23 -6
42 18 50 61 49 75 -2 55 -11 -5 -25 -4 -32 1 -14 11 -64 3 -61 -10 0 -4 -2
-14 -5 -22 -3 -8 -10 -30 -14 -49 -9 -34 -36 -61 -49 -49 -7 8 17 68 27 68 4
0 9 10 11 23 l5 23 -36 -17 c-20 -10 -51 -24 -68 -31 -18 -7 -33 -16 -33 -20
0 -11 18 -10 25 2 3 6 13 10 22 10 13 0 13 -3 3 -15 -7 -8 -18 -15 -24 -15 -7
0 -22 -11 -34 -25 -12 -14 -31 -25 -41 -25 -29 0 -34 -17 -8 -24 21 -6 21 -7
4 -20 -11 -8 -25 -12 -32 -9 -21 7 -38 -6 -26 -21 7 -8 1 -16 -20 -28 -16 -9
-29 -13 -29 -8 0 6 -4 10 -10 10 -15 0 -50 -38 -50 -54 0 -20 -21 -25 -50 -13
l-25 11 32 4 c28 3 33 8 39 38 8 42 35 60 65 44 27 -15 36 -6 15 15 -39 39
-16 71 87 117 27 13 35 32 17 43 -5 3 -10 14 -10 25 0 10 -7 21 -16 24 -22 8
-34 7 -34 -3z m-26 -89 c2 -4 1 -14 -4 -22 -7 -11 -11 -11 -24 -1 -9 7 -13 17
-10 22 7 11 31 12 38 1z m-44 -41 c0 -5 -7 -12 -16 -15 -22 -9 -24 -8 -24 9 0
8 9 15 20 15 11 0 20 -4 20 -9z m-174 -16 c-3 -8 -1 -15 4 -15 5 0 7 -7 4 -15
-4 -8 -10 -15 -15 -15 -13 0 -22 27 -15 45 3 8 10 15 17 15 6 0 9 -7 5 -15z
m454 -4 c3 -1 -6 -10 -19 -20 -26 -20 -81 -15 -89 8 -3 9 2 11 14 7 11 -3 26
-1 34 4 8 5 24 7 35 5 11 -2 22 -4 25 -4z m-415 -41 c3 -5 -1 -10 -10 -10 -9
0 -13 5 -10 10 3 6 8 10 10 10 2 0 7 -4 10 -10z m374 -24 c14 -17 0 -29 -34
-31 -12 0 -35 -16 -52 -35 l-31 -35 5 29 c5 24 3 28 -10 23 -13 -5 -14 -2 -8
16 7 18 15 21 43 19 22 -1 40 3 48 13 16 19 24 19 39 1z m-648 -59 c-19 -31
-51 -56 -51 -41 0 11 62 85 67 80 3 -3 -4 -20 -16 -39z m214 33 c3 -5 -1 -10
-10 -10 -9 0 -13 5 -10 10 3 6 8 10 10 10 2 0 7 -4 10 -10z m82 -16 c-3 -3
-12 -4 -19 -1 -8 3 -5 6 6 6 11 1 17 -2 13 -5z m-117 -33 c0 -15 -39 -19 -51
-5 -9 11 -6 14 20 14 17 0 31 -4 31 -9z m230 -29 c0 -13 -12 -22 -22 -16 -10
6 -1 24 13 24 5 0 9 -4 9 -8z m-165 -36 c16 -12 17 -16 6 -30 -22 -26 -40 -19
-39 14 1 34 6 36 33 16z m250 -16 c3 -5 1 -10 -4 -10 -6 0 -11 5 -11 10 0 6 2
10 4 10 3 0 8 -4 11 -10z m-172 -92 c4 -10 7 -10 18 0 15 14 79 16 79 2 0 -5
-15 -10 -34 -10 -19 0 -38 -4 -41 -10 -9 -15 -44 -12 -61 4 -12 13 -12 15 4
19 29 8 30 7 35 -5z m-64 -37 c11 -7 10 -11 -7 -20 -15 -8 -23 -7 -31 3 -19
22 9 35 38 17z"/>
<path d="M9249 5114 c-12 -14 -11 -16 5 -13 11 2 21 10 24 17 5 17 -13 15 -29
-4z"/>
<path d="M9655 5120 c4 -6 1 -17 -5 -25 -15 -19 -1 -19 23 -1 23 18 22 36 -4
36 -11 0 -17 -4 -14 -10z"/>
<path d="M9194 5105 c-15 -11 -16 -14 -4 -15 21 0 44 16 33 23 -6 4 -19 0 -29
-8z"/>
<path d="M9406 5105 c6 -15 -12 -20 -63 -15 -13 1 -23 -4 -23 -11 0 -20 100
-3 122 21 19 20 18 20 -11 20 -23 0 -29 -4 -25 -15z"/>
<path d="M9290 5100 c0 -5 4 -10 9 -10 6 0 13 5 16 10 3 6 -1 10 -9 10 -9 0
-16 -4 -16 -10z"/>
<path d="M8872 5071 c-11 -7 -11 -9 2 -14 10 -4 16 -1 16 8 0 17 -1 17 -18 6z"/>
<path d="M9190 5053 c-45 -31 -46 -33 -19 -26 24 7 66 40 58 46 -2 2 -20 -7
-39 -20z"/>
<path d="M9376 5059 c-15 -9 -16 -13 -5 -20 22 -14 38 -10 49 11 9 17 8 20 -7
20 -10 0 -26 -5 -37 -11z"/>
<path d="M8040 5050 c0 -5 5 -10 11 -10 5 0 7 5 4 10 -3 6 -8 10 -11 10 -2 0
-4 -4 -4 -10z"/>
<path d="M9580 5016 c0 -7 -16 -20 -35 -29 -19 -9 -35 -21 -35 -27 0 -17 17
-11 48 15 17 14 37 25 45 25 8 0 20 6 26 13 9 11 5 14 -19 15 -18 0 -30 -4
-30 -12z"/>
<path d="M8810 5005 c-10 -13 -9 -15 9 -15 11 0 21 4 21 9 0 18 -18 21 -30 6z"/>
<path d="M9137 4981 c-2 -11 0 -24 5 -29 11 -11 58 -4 58 9 0 21 -2 24 -15 21
-7 -1 -16 2 -20 8 -10 16 -22 12 -28 -9z"/>
<path d="M9190 4929 c0 -5 5 -7 10 -4 6 3 10 8 10 11 0 2 -4 4 -10 4 -5 0 -10
-5 -10 -11z"/>
<path d="M8270 4880 c0 -5 5 -10 11 -10 5 0 7 5 4 10 -3 6 -8 10 -11 10 -2 0
-4 -4 -4 -10z"/>
<path d="M8935 4860 c-3 -5 -2 -10 4 -10 5 0 13 5 16 10 3 6 2 10 -4 10 -5 0
-13 -4 -16 -10z"/>
<path d="M6990 4812 c0 -8 5 -22 10 -32 7 -13 7 -21 0 -25 -15 -9 -12 -25 5
-25 26 0 30 49 6 73 -13 13 -21 16 -21 9z"/>
<path d="M6140 4760 c0 -22 130 -167 184 -204 31 -21 56 -42 56 -46 0 -8 174
-140 184 -140 3 0 25 -18 48 -40 24 -22 48 -38 55 -36 6 3 13 2 15 -2 5 -11
109 -65 114 -59 3 2 -19 18 -48 35 -98 55 -249 176 -460 368 -82 74 -148 130
-148 124z"/>
<path d="M9970 4655 c-33 -53 -33 -55 -21 -55 7 0 15 8 18 18 4 9 13 22 21 28
8 6 13 19 10 30 -3 15 -8 11 -28 -21z"/>
<path d="M8590 4650 c0 -5 5 -10 11 -10 5 0 7 5 4 10 -3 6 -8 10 -11 10 -2 0
-4 -4 -4 -10z"/>
<path d="M9899 4559 c-13 -17 -33 -43 -45 -57 -117 -150 -213 -282 -205 -282
5 0 22 17 38 38 15 20 43 56 63 79 19 23 46 56 60 73 14 18 30 38 35 44 6 6
16 23 24 39 8 15 20 27 27 27 8 0 11 7 7 18 -3 9 -3 14 2 10 8 -7 34 19 35 35
0 16 -19 5 -41 -24z"/>
<path d="M8740 4536 c0 -2 7 -7 16 -10 8 -3 12 -2 9 4 -6 10 -25 14 -25 6z"/>
<path d="M7235 4520 c3 -5 8 -10 11 -10 2 0 4 5 4 10 0 6 -5 10 -11 10 -5 0
-7 -4 -4 -10z"/>
<path d="M8880 4440 c0 -5 5 -10 11 -10 5 0 7 5 4 10 -3 6 -8 10 -11 10 -2 0
-4 -4 -4 -10z"/>
<path d="M8926 4407 c3 -10 9 -15 12 -12 3 3 0 11 -7 18 -10 9 -11 8 -5 -6z"/>
<path d="M6091 4365 c6 -5 281 -85 381 -110 51 -12 72 -14 85 -5 15 9 12 10
-16 4 -23 -4 -31 -3 -27 5 8 12 -40 35 -58 27 -6 -2 -3 -5 6 -5 9 -1 19 -5 23
-10 3 -6 -7 -6 -27 0 -18 5 -35 9 -38 9 -3 0 2 5 10 11 11 8 6 9 -20 4 -23 -4
-30 -3 -22 3 11 7 7 11 -13 16 -15 4 -30 5 -33 1 -3 -3 3 -5 13 -5 10 0 16 -2
13 -5 -3 -3 -20 -2 -38 2 -30 5 -31 7 -15 15 15 6 13 7 -8 3 -20 -4 -27 -2
-22 6 5 8 1 9 -13 5 -11 -4 -53 2 -93 14 -74 20 -96 24 -88 15z"/>
<path d="M6700 4206 c0 -2 16 -13 35 -25 19 -11 35 -16 35 -11 0 5 -13 16 -30
25 -30 15 -40 18 -40 11z"/>
<path d="M9617 4190 c-9 -11 -13 -20 -7 -20 5 0 14 9 20 20 6 11 9 20 8 20 -2
0 -11 -9 -21 -20z"/>
<path d="M7027 4059 c7 -7 15 -10 18 -7 3 3 -2 9 -12 12 -14 6 -15 5 -6 -5z"/>
<path d="M7058 4033 c7 -3 16 -2 19 1 4 3 -2 6 -13 5 -11 0 -14 -3 -6 -6z"/>
<path d="M7187 3959 c7 -7 15 -10 18 -7 3 3 -2 9 -12 12 -14 6 -15 5 -6 -5z"/>
<path d="M6980 3899 c33 -34 60 -67 60 -73 0 -7 15 -20 33 -30 17 -9 45 -24
61 -33 16 -9 45 -30 64 -47 35 -32 96 -65 121 -66 8 0 22 -6 30 -14 24 -20
321 -46 321 -28 0 4 -48 36 -107 70 -60 35 -135 80 -168 100 -61 38 -136 65
-214 77 -51 8 -91 24 -183 71 -37 19 -69 34 -72 34 -3 0 22 -28 54 -61z m120
-79 c17 -13 20 -19 10 -20 -9 0 -35 20 -58 45 -49 52 -57 75 -9 27 17 -17 43
-41 57 -52z m55 -40 c3 -5 2 -10 -4 -10 -5 0 -13 5 -16 10 -3 6 -2 10 4 10 5
0 13 -4 16 -10z m136 -58 c-7 -2 -18 1 -23 6 -8 8 -4 9 13 5 13 -4 18 -8 10
-11z"/>
<path d="M7250 3921 c31 -27 93 -61 70 -39 -8 8 -33 25 -55 37 -38 22 -39 22
-15 2z"/>
<path d="M9127 3889 c7 -7 15 -10 18 -7 3 3 -2 9 -12 12 -14 6 -15 5 -6 -5z"/>
<path d="M7346 3861 c12 -13 124 -73 124 -67 0 6 -116 76 -126 76 -4 0 -4 -4
2 -9z"/>
<path d="M4334 3776 c3 -20 17 -36 27 -30 5 3 8 2 7 -3 -2 -5 54 -64 125 -132
70 -68 125 -126 123 -129 -3 -2 -54 31 -113 74 -185 133 -283 198 -289 192 -3
-4 30 -34 73 -68 100 -79 109 -90 51 -56 -52 29 -60 26 -26 -11 23 -24 11 -31
-23 -13 -36 20 -19 2 44 -45 l62 -47 -45 7 c-25 4 -63 9 -85 10 -22 1 -53 8
-68 14 -16 6 -36 11 -45 11 -28 0 34 -33 142 -75 54 -22 93 -41 87 -43 -6 -2
-56 6 -112 17 -56 12 -106 18 -111 15 -16 -10 6 -19 112 -49 52 -15 100 -31
105 -35 6 -5 42 -18 80 -28 39 -11 86 -27 105 -35 19 -8 54 -18 78 -22 59 -10
53 -25 -10 -25 -61 0 -98 -8 -98 -21 0 -5 71 -9 158 -9 107 0 175 -5 212 -15
74 -20 220 -20 220 -1 0 8 10 16 23 18 25 4 157 -13 333 -42 67 -11 137 -20
155 -19 29 0 24 4 -36 24 -60 20 -65 23 -37 24 l34 1 -34 28 c-18 15 -43 36
-56 47 -45 39 -416 284 -421 279 -9 -9 100 -105 175 -156 38 -25 112 -74 164
-107 52 -34 92 -61 89 -61 -3 0 -45 9 -93 19 -81 18 -100 27 -215 104 -143 96
-379 240 -401 245 -8 2 -18 8 -21 14 -4 7 -9 6 -14 -2 -11 -17 149 -171 277
-266 84 -63 97 -76 71 -71 -18 4 -55 21 -83 39 -99 65 -369 256 -452 320 -43
33 -45 33 -50 11 -2 -13 -24 -2 -99 49 -53 36 -96 61 -95 54z m826 -404 c165
-104 167 -106 110 -97 -47 7 -88 29 -130 67 -14 13 -51 42 -82 66 -31 24 -63
51 -70 59 -12 15 -10 15 12 3 14 -7 86 -51 160 -98z m-410 -2 c0 -5 -7 -7 -15
-4 -8 4 -15 8 -15 10 0 2 7 4 15 4 8 0 15 -4 15 -10z m138 -23 c43 2 43 2 21
-16 -19 -16 -27 -16 -72 -4 -64 16 -91 39 -32 27 22 -5 59 -8 83 -7z"/>
<path d="M6029 3585 c15 -28 41 -56 75 -83 16 -12 25 -22 21 -22 -11 0 30 -38
112 -104 45 -36 77 -55 85 -50 7 4 10 3 5 -1 -8 -9 54 -51 143 -97 75 -38 86
-35 19 5 -92 55 -271 191 -369 280 -104 94 -103 93 -91 72z"/>
<path d="M5330 3572 c0 -28 222 -193 371 -275 72 -40 196 -92 244 -102 17 -4
-40 31 -126 77 -127 68 -300 177 -469 297 -12 8 -20 9 -20 3z"/>
<path d="M8049 3457 c14 -18 118 -77 135 -77 17 0 -6 16 -79 56 -39 21 -64 31
-56 21z"/>
<path d="M6708 3332 c40 -36 150 -65 370 -98 17 -3 32 -8 32 -13 0 -4 26 -9
57 -10 31 -1 60 -4 64 -7 12 -7 159 18 154 26 -3 5 -13 6 -23 3 -50 -13 -599
80 -666 113 -6 3 -1 -3 12 -14z"/>
<path d="M8331 3297 c-17 -17 -13 -25 19 -42 24 -12 33 -13 50 -3 16 11 28 8
75 -15 31 -15 58 -34 61 -42 4 -8 15 -15 25 -15 10 0 19 -4 19 -10 0 -15 26
-12 39 3 9 11 2 18 -32 34 -162 79 -240 106 -256 90z"/>
<path d="M8007 3274 c-15 -15 -6 -24 24 -24 20 0 29 4 27 13 -5 14 -40 21 -51
11z"/>
<path d="M8218 3273 c7 -3 16 -2 19 1 4 3 -2 6 -13 5 -11 0 -14 -3 -6 -6z"/>
<path d="M7660 3240 c-12 -8 -11 -10 8 -10 12 0 22 5 22 10 0 13 -11 13 -30 0z"/>
<path d="M9521 3204 c0 -11 3 -14 6 -6 3 7 2 16 -1 19 -3 4 -6 -2 -5 -13z"/>
<path d="M6940 3193 c-99 -23 -114 -32 -45 -28 185 11 265 18 265 25 0 4 -25
6 -55 4 -33 -2 -55 0 -55 6 0 13 -32 11 -110 -7z"/>
<path d="M6668 3163 c6 -2 18 -2 25 0 6 3 1 5 -13 5 -14 0 -19 -2 -12 -5z"/>
<path d="M6465 3144 c-59 -15 -358 -54 -419 -54 -58 0 -106 -10 -106 -23 0
-15 248 0 388 23 64 11 160 31 212 44 l95 24 -60 0 c-33 0 -82 -6 -110 -14z"/>
<path d="M8673 3148 c15 -5 27 -14 27 -19 0 -5 7 -9 15 -9 8 0 15 -6 15 -14 0
-15 92 -66 118 -66 12 0 12 3 2 15 -19 23 4 19 50 -7 22 -13 40 -29 40 -36 0
-16 43 -33 51 -20 6 10 39 0 39 -11 0 -10 104 -61 124 -61 9 0 16 6 16 14 0
19 30 29 46 15 8 -6 14 -7 14 -2 0 12 -26 25 -120 58 -41 15 -95 35 -120 45
-25 9 -76 27 -115 40 -38 12 -75 26 -82 32 -7 5 -22 7 -34 3 -14 -5 -19 -3
-15 3 9 15 -27 32 -66 31 l-33 -1 28 -10z"/>
<path d="M9390 2800 c0 -5 9 -10 20 -10 11 0 20 5 20 10 0 6 -9 10 -20 10 -11
0 -20 -4 -20 -10z"/>
<path d="M9850 2775 c13 -14 26 -25 28 -25 3 0 -5 11 -18 25 -13 14 -26 25
-28 25 -3 0 5 -11 18 -25z"/>
</g>
</svg>
