<?xml version="1.0" standalone="no"?>
<!DOCTYPE svg PUBLIC "-//W3C//DTD SVG 20010904//EN"
 "http://www.w3.org/TR/2001/REC-SVG-20010904/DTD/svg10.dtd">
<svg version="1.0" xmlns="http://www.w3.org/2000/svg"
 width="1080.000000pt" height="1080.000000pt" viewBox="0 0 1080.000000 1080.000000"
 preserveAspectRatio="xMidYMid meet">

<g transform="translate(0.000000,1080.000000) scale(0.100000,-0.100000)"
fill="#000000" stroke="none">
<path d="M5287 9324 c-4 -5 -47 -11 -95 -15 -85 -6 -222 -29 -292 -48 -19 -5
-46 -13 -60 -16 -26 -7 -64 -22 -92 -36 -10 -5 -23 -9 -29 -9 -7 0 -37 -12
-68 -26 -163 -77 -206 -99 -211 -105 -3 -4 -27 -19 -55 -34 -27 -15 -59 -36
-71 -46 -11 -11 -25 -19 -31 -19 -6 0 -13 -3 -15 -7 -1 -5 -21 -21 -43 -38
-118 -87 -284 -258 -389 -400 -17 -22 -33 -42 -37 -45 -16 -12 -135 -232 -175
-323 -25 -55 -62 -157 -83 -226 -74 -240 -70 -114 -73 -2516 -1 -1182 1 -2156
5 -2163 7 -9 179 -12 808 -12 l799 0 0 804 0 804 28 9 c40 14 100 -7 125 -43
37 -52 71 -85 110 -106 22 -10 41 -18 43 -15 2 2 -14 33 -36 70 -44 73 -49 93
-22 101 10 4 45 22 77 41 31 19 58 35 59 35 1 0 -2 -29 -8 -65 -10 -73 -5 -86
24 -60 29 26 58 93 66 152 5 40 14 58 40 84 l34 33 47 -27 48 -26 3 -895 2
-895 805 -1 805 0 0 2159 c0 1501 -3 2183 -11 2238 -14 104 -71 328 -108 429
-16 45 -51 124 -77 175 -45 91 -173 293 -211 334 -10 11 -31 36 -47 55 -201
247 -521 471 -821 575 -27 10 -54 22 -59 26 -6 5 -22 9 -37 9 -15 0 -30 4 -33
9 -19 30 -614 100 -639 75z m435 -2375 l3 -530 38 -22 c47 -27 57 -17 57 63 0
30 4 61 9 69 9 14 12 6 27 -81 3 -21 11 -38 18 -38 32 -1 196 46 196 55 0 7
-11 34 -25 60 -13 27 -22 51 -20 54 3 2 24 -16 48 -40 l43 -45 22 73 c12 40
26 73 30 73 5 0 6 -40 4 -90 -4 -89 -4 -90 19 -90 33 0 114 -25 174 -54 28
-13 96 -32 153 -42 57 -10 97 -21 90 -25 -7 -4 -39 -12 -70 -19 -32 -7 -58
-15 -58 -18 0 -25 45 -223 56 -244 8 -14 43 -52 78 -83 62 -55 83 -82 71 -93
-2 -3 -27 16 -55 42 -42 39 -54 45 -65 36 -8 -7 -15 -21 -15 -31 0 -58 -78
-244 -111 -264 -17 -11 10 -25 51 -25 27 0 31 -3 22 -12 -7 -7 -51 -15 -99
-19 -74 -5 -89 -9 -104 -28 -24 -30 -24 -34 7 -71 31 -37 24 -53 -9 -21 -14
13 -30 19 -40 15 -19 -7 -43 -71 -52 -135 -3 -26 -12 -55 -19 -65 -12 -16 -13
-10 -12 42 1 68 8 66 -126 43 l-78 -13 0 -73 c0 -40 -4 -73 -9 -73 -4 0 -14
27 -20 60 -7 33 -13 60 -15 60 -1 0 -17 -17 -34 -39 -27 -34 -30 -42 -22 -76
12 -52 1 -66 -20 -26 l-16 32 -67 -55 c-36 -30 -72 -56 -79 -59 -18 -6 17 -44
62 -68 34 -18 34 -18 9 -19 -15 0 -53 14 -84 30 -63 33 -75 32 -118 -5 -20
-18 -30 -40 -38 -82 -13 -69 -37 -133 -51 -133 -6 0 -7 7 -4 16 3 9 9 41 13
72 l6 56 -49 -37 c-27 -21 -74 -50 -104 -64 -30 -14 -56 -27 -58 -28 -5 -4 23
-72 41 -99 36 -51 -4 -24 -52 35 -49 62 -115 93 -162 77 -14 -5 -59 -14 -100
-21 -64 -11 -74 -15 -77 -35 -4 -28 -22 -18 -22 13 0 16 -7 25 -24 29 -13 3
-47 21 -75 40 l-51 35 6 -40 c4 -24 3 -39 -4 -39 -12 0 -21 21 -33 84 -5 27
-25 78 -45 113 l-35 63 -48 0 c-48 0 -111 16 -111 28 0 4 24 6 52 4 67 -3 82
6 74 46 -6 25 -14 32 -50 42 -43 12 -86 2 -86 -19 0 -12 -61 -94 -66 -88 -3 2
6 30 20 61 14 31 23 56 21 56 -2 0 -20 -9 -39 -21 -58 -34 -65 -16 -8 22 29
18 52 37 52 41 0 4 -20 30 -45 58 -24 27 -49 59 -55 70 -10 19 -12 18 -39 -13
-40 -44 -48 -29 -11 21 31 43 34 58 24 112 -6 27 -16 36 -70 63 -35 17 -64 34
-64 38 0 3 21 2 48 -2 72 -12 79 -11 54 7 -32 22 -29 45 6 39 25 -5 29 0 61
66 29 62 32 76 24 104 -6 19 -7 39 -2 46 7 11 10 9 15 -8 4 -13 9 -23 12 -23
15 0 112 106 112 122 0 23 -18 23 -80 -1 -27 -11 -47 -15 -44 -10 9 15 83 59
123 74 20 7 64 41 99 74 54 54 61 64 51 82 -16 30 0 38 21 11 18 -22 21 -23
62 -9 24 8 59 18 78 22 47 10 112 44 105 55 -3 4 -24 11 -48 15 -84 14 -74 26
18 22 l91 -3 -31 27 c-43 39 -27 44 25 9 87 -58 80 -105 80 545 l0 575 320 0
320 0 2 -531z m-1062 -746 c0 -22 -114 -116 -177 -148 -39 -19 -90 -53 -114
-75 l-44 -39 30 0 c17 0 55 10 85 24 30 13 57 21 60 19 2 -3 -15 -24 -38 -47
-32 -31 -42 -37 -42 -24 0 13 -6 17 -22 15 -21 -3 -23 -9 -23 -58 0 -39 -8
-71 -28 -112 -26 -54 -29 -57 -53 -48 -35 14 -34 14 -34 -21 l0 -31 -48 7
c-26 3 -57 2 -70 -2 -20 -8 -15 -13 55 -51 l78 -42 -232 0 -233 0 0 320 0 320
425 0 c234 0 425 -3 425 -7z m2330 -313 l0 -320 -332 0 c-316 0 -413 9 -232
21 70 4 88 9 109 29 29 27 19 40 -32 40 l-32 0 33 63 c18 34 41 96 51 137 10
41 19 77 21 79 2 2 26 -17 55 -43 57 -51 95 -62 84 -23 -13 45 -29 66 -96 126
-69 63 -77 77 -95 174 l-6 37 236 0 236 0 0 -320z"/>
<path d="M6070 6398 c-13 -7 -29 -27 -34 -43 -4 -17 -12 -38 -17 -47 -12 -23
18 -31 84 -23 91 11 91 11 67 51 -35 60 -22 61 38 2 33 -32 81 -66 115 -81 32
-15 71 -36 87 -47 16 -11 31 -16 34 -12 8 13 -41 56 -111 97 -35 20 -63 38
-63 42 0 5 30 -1 73 -13 11 -3 17 0 17 10 0 8 -25 27 -54 41 -66 32 -195 45
-236 23z"/>
<path d="M5908 6363 c-47 -19 -48 -30 -3 -49 51 -21 74 -18 81 11 14 55 -11
67 -78 38z"/>
<path d="M5753 6305 c-29 -13 -33 -18 -33 -55 l0 -40 175 0 c96 0 175 -3 175
-7 0 -4 -9 -17 -21 -29 -49 -53 22 -48 99 6 49 34 70 36 135 14 l46 -16 -5
-81 c-7 -97 -10 -109 -26 -105 -21 4 -68 -12 -68 -22 0 -6 11 -16 25 -22 25
-11 25 -11 4 -22 -34 -17 -25 -30 37 -50 33 -11 61 -21 63 -23 6 -4 -50 -62
-71 -74 -13 -7 -27 1 -63 38 l-46 48 7 -45 c3 -25 13 -58 21 -74 15 -28 14
-31 -6 -47 -21 -17 -24 -16 -94 16 -128 58 -145 56 -82 -13 24 -27 31 -42 24
-49 -8 -8 -4 -15 12 -27 22 -15 22 -16 4 -36 -17 -19 -30 -20 -182 -20 l-163
0 0 -112 0 -111 -23 21 c-13 12 -28 22 -34 22 -18 0 -25 -35 -12 -64 11 -23 8
-30 -36 -81 -26 -31 -49 -54 -51 -53 -2 2 6 33 17 68 11 35 18 67 17 72 -6 17
-49 -25 -77 -74 -27 -47 -30 -49 -40 -29 -7 11 -18 21 -26 21 -13 0 -21 -27
-27 -94 -3 -25 -9 -31 -48 -42 -24 -7 -46 -11 -49 -8 -3 3 -4 29 -3 59 2 48 0
55 -17 55 -23 0 -37 -16 -46 -52 l-7 -27 -31 33 c-30 31 -97 73 -97 61 0 -11
39 -81 74 -134 20 -29 36 -56 36 -60 -1 -10 -72 -61 -87 -61 -10 0 -13 19 -13
78 0 42 -3 87 -6 100 l-7 23 -14 -21 c-8 -12 -19 -33 -23 -48 -5 -16 -9 75 -9
216 l-1 242 -237 0 c-200 0 -242 3 -275 17 -47 21 -48 37 -5 52 64 24 112 52
131 78 l19 26 -39 -7 c-21 -4 -57 -10 -78 -13 l-39 -6 6 54 c4 30 7 66 7 81
l0 27 108 3 107 3 -72 37 c-62 31 -70 38 -57 49 12 10 22 10 48 1 39 -14 83
-16 91 -3 3 6 -6 21 -21 34 l-26 24 64 35 c34 20 66 33 71 31 4 -2 7 -32 8
-66 0 -34 4 -71 8 -81 14 -35 52 63 58 149 l6 75 39 11 c34 9 43 8 59 -7 17
-15 19 -15 19 -1 0 24 -33 38 -72 31 -62 -12 -65 -17 -71 -105 -6 -87 -27
-136 -27 -62 0 23 -4 53 -10 68 l-10 26 -47 -27 c-27 -15 -67 -38 -91 -51
l-42 -24 27 -24 c34 -28 27 -40 -11 -20 -16 8 -37 15 -48 15 -22 0 -78 -36
-78 -51 0 -5 20 -14 45 -20 71 -18 63 -29 -19 -29 l-76 0 0 -69 c0 -38 -3 -83
-7 -101 l-6 -33 56 5 c47 4 55 2 45 -9 -6 -7 -31 -18 -55 -24 -43 -11 -87 -51
-80 -73 2 -5 18 -14 35 -18 49 -13 39 -29 -13 -21 -37 5 -46 3 -51 -12 -11
-28 8 -47 76 -74 35 -14 65 -32 68 -40 3 -9 -2 -11 -14 -8 -11 4 -32 9 -48 13
l-29 7 33 -46 c60 -84 62 -84 120 -47 28 18 53 30 56 27 11 -11 -9 -29 -52
-49 -30 -13 -44 -25 -44 -38 0 -26 13 -31 58 -24 36 6 43 12 68 61 28 54 55
85 40 48 -4 -11 -14 -41 -23 -68 l-16 -49 55 -55 c31 -31 61 -53 67 -49 6 4
21 39 33 79 12 41 24 64 26 53 3 -16 -6 -68 -25 -131 -5 -20 -5 -19 18 1 27
24 59 37 59 25 0 -5 -7 -14 -15 -21 -9 -7 -25 -26 -36 -41 l-20 -28 47 -43
c44 -41 81 -67 96 -68 4 0 11 17 17 38 25 101 24 101 32 14 3 -45 9 -85 12
-88 3 -4 33 13 67 37 72 50 72 57 8 152 -45 66 -30 74 17 9 17 -22 34 -39 40
-38 5 1 13 19 16 40 3 20 11 42 18 49 8 8 11 -4 11 -50 0 -62 11 -83 33 -65 7
6 34 16 60 22 l47 12 0 54 c0 30 5 54 10 54 6 0 10 -11 10 -24 0 -44 19 -38
44 13 14 27 30 52 36 56 13 8 13 10 -5 -49 -8 -27 -15 -53 -15 -58 0 -19 61
25 104 75 44 52 57 89 36 102 -5 3 -10 14 -10 23 1 14 4 13 19 -5 25 -29 28
-29 96 10 49 27 60 39 76 81 10 28 26 57 34 65 15 15 16 13 9 -14 -5 -16 -8
-43 -9 -60 0 -25 4 -29 20 -27 19 4 54 38 76 75 9 15 7 19 -10 24 -37 10 -23
26 18 20 36 -4 42 -1 82 40 l44 44 -25 19 c-14 11 -19 20 -12 20 21 0 13 23
-15 47 l-28 23 27 -10 c15 -5 46 -19 68 -30 45 -23 68 -20 95 10 17 19 17 22
2 62 -21 54 -15 59 16 14 l24 -36 68 62 c76 70 75 76 -17 99 -40 9 -47 14 -34
21 9 5 25 7 35 3 39 -12 31 16 -9 34 -60 27 -35 34 38 11 89 -28 97 -22 108
74 6 46 3 55 -21 84 -15 18 -31 32 -35 32 -5 0 -19 -31 -30 -70 -21 -72 -45
-96 -36 -37 3 17 8 57 11 88 l6 56 -35 17 c-19 9 -55 19 -80 22 -40 6 -51 3
-96 -26 -56 -36 -71 -36 -42 0 l19 24 -128 32 c-71 19 -142 40 -158 49 -36 18
-37 18 -78 0z m678 -216 c13 -26 5 -109 -13 -120 -6 -4 -23 -3 -38 2 l-27 10
25 64 c14 36 29 65 34 65 4 0 12 -10 19 -21z"/>
<path d="M5063 6283 c-18 -7 -16 -23 2 -23 8 0 15 7 15 15 0 8 -1 15 -2 14 -2
0 -9 -3 -15 -6z"/>
<path d="M4792 6177 c-25 -8 -32 -15 -30 -30 4 -30 22 -31 54 -3 36 31 23 47
-24 33z"/>
<path d="M4670 6115 c-12 -14 -5 -55 10 -55 10 0 20 25 20 51 0 23 -13 25 -30
4z"/>
<path d="M6475 5910 c-7 -23 -84 -129 -131 -183 -33 -36 -45 -77 -23 -77 6 0
37 25 69 56 65 62 110 140 110 191 0 36 -15 44 -25 13z m-33 -112 c-11 -18
-35 -46 -53 -63 -25 -24 -22 -16 17 36 51 69 71 84 36 27z"/>
<path d="M4481 5854 c-21 -30 -22 -37 -10 -45 8 -5 17 -9 21 -9 10 0 20 43 16
69 -3 18 -6 17 -27 -15z"/>
<path d="M4423 5758 c-12 -15 -43 -106 -43 -124 0 -9 48 -34 66 -34 1 0 12 30
25 67 l22 67 -23 18 c-26 21 -34 22 -47 6z m31 -81 c-12 -35 -21 -47 -36 -47
-17 0 -19 4 -13 27 3 15 13 43 21 62 13 31 16 33 29 20 13 -13 13 -20 -1 -62z"/>
<path d="M6240 5635 c-14 -16 -5 -35 16 -35 15 0 20 35 5 44 -5 3 -14 -1 -21
-9z"/>
<path d="M6122 5547 c-23 -23 -42 -46 -42 -50 0 -3 11 -14 24 -22 22 -15 27
-15 54 -1 17 9 41 30 53 47 l22 32 -22 18 c-33 27 -42 24 -89 -24z"/>
<path d="M4386 5552 c-2 -4 -1 -14 4 -22 7 -11 11 -11 24 -1 9 8 16 17 16 22
0 11 -37 12 -44 1z"/>
<path d="M4414 5449 c9 -44 42 -87 94 -120 25 -16 50 -29 54 -29 14 0 -12 42
-54 88 -21 23 -44 53 -50 67 -6 14 -20 25 -31 25 -16 0 -19 -5 -13 -31z"/>
<path d="M6025 5454 c-20 -21 -6 -39 24 -29 24 7 27 18 7 34 -11 9 -18 8 -31
-5z"/>
<path d="M5765 5300 c-9 -15 3 -30 24 -30 23 0 31 9 24 26 -6 16 -39 19 -48 4z"/>
<path d="M5686 5223 c-32 -34 -19 -50 23 -29 34 18 38 28 17 45 -11 10 -19 6
-40 -16z"/>
<path d="M4670 5199 c0 -29 45 -106 71 -119 12 -7 38 -8 67 -4 43 6 46 6 33
-9 -7 -10 -19 -17 -25 -17 -6 0 -17 -4 -25 -9 -12 -8 -10 -16 12 -50 23 -34
83 -80 91 -69 8 9 26 74 26 90 0 20 -119 151 -153 170 -27 14 -29 6 -12 -36
15 -36 15 -37 -5 -26 -11 6 -29 28 -40 50 -24 47 -40 59 -40 29z"/>
<path d="M5387 5040 c-74 -31 -169 -98 -164 -115 6 -16 90 -9 127 10 37 19
140 112 140 126 0 16 -34 9 -103 -21z m27 -31 c-25 -28 -91 -66 -129 -75 l-30
-6 20 20 c24 25 124 82 144 82 10 0 9 -5 -5 -21z"/>
</g>
</svg>
