<svg id="visual" viewBox="0 0 1000 675" width="1000" height="675" xmlns="http://www.w3.org/2000/svg" xmlns:xlink="http://www.w3.org/1999/xlink" version="1.1"><path d="M0 486L18.5 488C37 490 74 494 111 490C148 486 185 474 222 486.7C259 499.3 296 536.7 333 532.5C370 528.3 407 482.7 444.2 480.2C481.3 477.7 518.7 518.3 555.8 531.8C593 545.3 630 531.7 667 520.5C704 509.3 741 500.7 778 507.7C815 514.7 852 537.3 889 551.5C926 565.7 963 571.3 981.5 574.2L1000 577L1000 676L981.5 676C963 676 926 676 889 676C852 676 815 676 778 676C741 676 704 676 667 676C630 676 593 676 555.8 676C518.7 676 481.3 676 444.2 676C407 676 370 676 333 676C296 676 259 676 222 676C185 676 148 676 111 676C74 676 37 676 18.5 676L0 676Z" fill="#697dac" stroke-linecap="round" stroke-linejoin="miter"></path></svg>