<svg id="visual" viewBox="0 0 900 450" width="900" height="450" xmlns="http://www.w3.org/2000/svg" xmlns:xlink="http://www.w3.org/1999/xlink" version="1.1"><rect x="0" y="0" width="900" height="450" fill="#001220"></rect><path d="M0 52L16.7 54.3C33.3 56.7 66.7 61.3 100 63.3C133.3 65.3 166.7 64.7 200 57.8C233.3 51 266.7 38 300 37.3C333.3 36.7 366.7 48.3 400 49.2C433.3 50 466.7 40 500 40.7C533.3 41.3 566.7 52.7 600 58.5C633.3 64.3 666.7 64.7 700 58C733.3 51.3 766.7 37.7 800 31.7C833.3 25.7 866.7 27.3 883.3 28.2L900 29L900 0L883.3 0C866.7 0 833.3 0 800 0C766.7 0 733.3 0 700 0C666.7 0 633.3 0 600 0C566.7 0 533.3 0 500 0C466.7 0 433.3 0 400 0C366.7 0 333.3 0 300 0C266.7 0 233.3 0 200 0C166.7 0 133.3 0 100 0C66.7 0 33.3 0 16.7 0L0 0Z" fill="#697dac" stroke-linecap="round" stroke-linejoin="miter"></path></svg>